<?xml version="1.0" standalone="no"?>
<!DOCTYPE svg PUBLIC "-//W3C//DTD SVG 1.1//EN" "http://www.w3.org/Graphics/SVG/1.1/DTD/svg11.dtd" >
<svg xmlns="http://www.w3.org/2000/svg">
<metadata></metadata>
<defs>
<font id="centrale_sans_roundedmedium" horiz-adv-x="1069" >
<font-face units-per-em="2048" ascent="1657" descent="-391" />
<missing-glyph horiz-adv-x="550" />
<glyph horiz-adv-x="0" />
<glyph horiz-adv-x="682" />
<glyph horiz-adv-x="28" />
<glyph horiz-adv-x="28" />
<glyph unicode="&#xd;" horiz-adv-x="636" />
<glyph unicode=" "  horiz-adv-x="550" />
<glyph unicode="&#x09;" horiz-adv-x="550" />
<glyph unicode="&#xa0;" horiz-adv-x="550" />
<glyph unicode="!" horiz-adv-x="628" d="M180 98q0 55 37.5 91t93.5 36q55 0 91 -35.5t36 -91.5q0 -54 -35.5 -88.5t-91.5 -34.5t-93.5 34.5t-37.5 88.5zM190 1305q-1 61 30.5 95t88.5 34q60 0 91.5 -33.5t29.5 -95.5l-24 -795q-6 -100 -95 -100q-86 0 -92 100z" />
<glyph unicode="&#x22;" horiz-adv-x="1089" d="M248 944l10 377q0 115 109 115q57 0 84.5 -33.5t15.5 -93.5l-74 -373q-15 -66 -74 -66q-71 0 -71 74zM637 944l12 377q-3 115 109 115q55 0 82.5 -33.5t17.5 -93.5l-76 -373q-12 -66 -73 -66q-32 0 -52 20t-20 54z" />
<glyph unicode="#" horiz-adv-x="1636" d="M113 416q0 38 28 64t74 26h180l74 403h-150q-49 0 -75.5 25t-26.5 67q0 40 27 65.5t75 25.5h179l51 260q15 88 94 88q42 0 66.5 -30.5t17.5 -80.5l-43 -237h385l49 260q15 88 94 88q42 0 66.5 -30.5t17.5 -80.5l-43 -237h146q48 0 76 -26t28 -65q0 -42 -27.5 -67 t-76.5 -25h-174l-72 -403h145q48 0 75.5 -25.5t27.5 -64.5q0 -41 -28 -66.5t-75 -25.5h-178l-43 -238q-15 -92 -96 -92q-44 0 -68 31.5t-14 83.5l37 215h-387l-45 -238q-18 -92 -96 -92q-44 0 -69 31.5t-15 83.5l38 215h-147q-47 0 -74.5 25t-27.5 67zM582 506h387l73 403 h-389z" />
<glyph unicode="$" horiz-adv-x="1226" d="M133 1059q0 178 110 280.5t308 116.5v107q0 34 20 52.5t52 18.5q69 0 69 -71v-107q162 -9 293 -61q70 -27 70 -90q0 -39 -25 -66t-67 -27q-19 0 -56 11q-146 47 -280 47q-128 0 -199.5 -57t-71.5 -152q0 -77 64 -141q20 -20 78 -48q62 -29 84 -36l102 -35q99 -35 125 -45 q50 -19 113 -56q94 -53 140.5 -127t53.5 -194q0 -177 -111 -278.5t-313 -120.5v-111q0 -32 -19 -52t-50 -20q-33 0 -52.5 18.5t-19.5 53.5v108q-177 9 -320 66q-75 26 -75 96q0 38 23 63t61 25q36 0 71 -14q140 -51 295 -51q139 0 212 57.5t73 163.5q0 104 -92 154 q-50 33 -99 49l-55 18q-29 11 -121 41q-92 31 -148.5 58t-117.5 73q-125 96 -125 283z" />
<glyph unicode="%" horiz-adv-x="1705" d="M100 1106q0 151 93 252q94 98 241 98q148 0 236 -98q92 -95 92 -248q0 -148 -92 -248q-91 -98 -240 -98q-144 0 -237 96t-93 246zM279 1108q0 -87 43 -139q48 -54 112 -54q67 0 109.5 54t42.5 139q0 86 -43 140.5t-111 54.5q-69 0 -113 -56q-40 -52 -40 -139zM399 76 q0 28 17 59l714 1239q38 66 91 66q39 0 63.5 -22t24.5 -58q0 -28 -19 -60l-715 -1243q-37 -63 -88 -63q-37 0 -62.5 23t-25.5 59zM946 319q0 152 92 252q94 99 242 99t236 -99q92 -95 92 -247q0 -148 -92 -248q-92 -99 -240 -99q-144 0 -238 97q-92 95 -92 245zM1124 322 q0 -88 43 -140q47 -53 113 -53q67 0 109.5 54t42.5 139q0 86 -43 140t-111 54q-70 0 -113 -55q-41 -53 -41 -139z" />
<glyph unicode="&#x26;" horiz-adv-x="1400" d="M111 385q0 136 75 236.5t226 193.5l-33 39q-15 18 -23.5 29t-17.5 23.5t-19 25.5q-8 11 -13.5 20t-10.5 19t-6.5 14.5t-7 18.5t-7.5 18q-18 45 -18 108q0 154 100 238q101 88 250 88q140 0 244 -84q102 -83 102 -225q0 -109 -67 -195t-205 -168l330 -378q62 68 135 196 q43 67 106 49q42 -11 54.5 -47t-9.5 -90q-66 -138 -163 -238l114 -135q49 -54 26 -105.5t-85 -51.5q-48 0 -84 45l-107 125q-183 -174 -432 -174q-191 0 -321 106q-133 109 -133 299zM309 403q0 -114 77 -178.5t196 -64.5q166 0 299 127l-363 405q-109 -69 -159 -134.5 t-50 -154.5zM444 1122q0 -55 30 -105.5t101 -121.5q195 109 195 238q0 68 -45 111.5t-117 43.5q-73 0 -118.5 -48t-45.5 -118z" />
<glyph unicode="'" horiz-adv-x="534" d="M164 944l10 377q0 115 109 115q55 0 83.5 -33.5t18.5 -93.5l-76 -373q-12 -66 -73 -66q-32 0 -52 20t-20 54z" />
<glyph unicode="(" horiz-adv-x="774" d="M113 602q0 246 104 438q112 200 260 328q57 51 109 51q31 0 53.5 -22t22.5 -49q0 -43 -58 -101q-268 -262 -268 -647q-3 -229 74 -389q80 -163 211 -291q47 -56 47 -90q0 -27 -23.5 -49.5t-54.5 -22.5q-46 0 -107 52q-157 138 -264 337q-106 196 -106 455z" />
<glyph unicode=")" horiz-adv-x="774" d="M98 -170q0 37 47 90q133 130 209 291q77 160 74 389q0 388 -268 647q-56 53 -56 101q0 30 21.5 50.5t56.5 20.5q50 0 107 -51q150 -130 258 -328q106 -190 106 -438q0 -259 -106 -455q-107 -199 -264 -337q-61 -52 -107 -52q-31 0 -54.5 22.5t-23.5 49.5z" />
<glyph unicode="*" horiz-adv-x="927" d="M169 1097.5q10 25.5 40 37.5l168 77l-168 76q-30 12 -39 37.5t8 50.5q34 52 94 10l148 -104l-17 188q-9 70 58 70q31 0 47.5 -19.5t11.5 -50.5l-18 -188l149 107q25 19 54.5 15.5t42.5 -28.5q14 -25 5 -49.5t-38 -36.5l-170 -78l168 -77q31 -14 41.5 -38.5t-6.5 -49.5 q-13 -25 -42.5 -28.5t-54.5 15.5l-149 105l18 -187q12 -45 -30 -62q-37 -15 -68 5q-30 19 -19 57l17 187l-148 -105q-27 -20 -52.5 -16t-43.5 29q-17 25 -7 50.5z" />
<glyph unicode="+" horiz-adv-x="1071" d="M135 682q0 33 24.5 53.5t65.5 20.5h238v243q0 38 20.5 61t53.5 23q36 0 56.5 -23t20.5 -61v-243h238q42 0 66 -19.5t24 -54.5q0 -78 -90 -78h-238v-246q0 -38 -20.5 -61t-56.5 -23q-33 0 -53.5 23t-20.5 61v246h-238q-41 0 -65.5 21.5t-24.5 56.5z" />
<glyph unicode="," horiz-adv-x="583" d="M147 92q0 51 37.5 87t91.5 36q72 0 116 -53.5t44 -134.5q0 -80 -45.5 -150t-114.5 -115q-30 -18 -53 -18q-18 0 -31.5 12.5t-13.5 30.5q0 29 27 47q101 64 98 168q-29 -20 -53 -20q-49 0 -76 29.5t-27 80.5z" />
<glyph unicode="-" d="M160 541q0 32 24 51.5t62 19.5h577q41 0 64.5 -19t23.5 -52q0 -76 -88 -76h-577q-86 0 -86 76z" />
<glyph unicode="." horiz-adv-x="555" d="M152 104q0 52 35.5 87.5t88.5 35.5q54 0 89.5 -35.5t35.5 -87.5q0 -55 -35 -88.5t-90 -33.5t-89.5 33.5t-34.5 88.5z" />
<glyph unicode="/" horiz-adv-x="956" d="M2 -303q0 24 10 47l746 1692q30 71 86 71q36 0 59 -19.5t23 -53.5q0 -24 -11 -50l-745 -1691q-31 -72 -86 -72q-36 0 -59 20.5t-23 55.5z" />
<glyph unicode="0" horiz-adv-x="1482" d="M131 715q0 331 166 536q169 205 446 205q274 0 441 -203q168 -201 168 -532q0 -335 -168 -539q-166 -205 -443 -205q-274 0 -444 203q-166 205 -166 535zM360 719q0 -261 100.5 -408t282.5 -147q179 0 279 146.5t100 404.5q0 259 -101 407t-280 148q-178 0 -279.5 -147 t-101.5 -404z" />
<glyph unicode="1" horiz-adv-x="788" d="M106 1204q0 55 66 90l193 113q56 33 106 33q107 0 107 -109v-1222q0 -55 -29.5 -85t-79.5 -30q-48 0 -76 30t-28 85v1089l-113 -61q-36 -19 -64 -19q-35 0 -58.5 26t-23.5 60z" />
<glyph unicode="2" horiz-adv-x="1210" d="M111 109q0 63 77 131l422 393q58 56 107 108q44 49 79 124t35 143q0 115 -82 189.5t-221 74.5q-58 0 -122 -19q-13 -4 -58.5 -19.5t-50.5 -16.5q-33 -11 -59 -11q-40 0 -62 25.5t-22 62.5q0 64 75 90q159 72 342 72q214 0 349 -123q137 -119 137 -311q0 -173 -109 -311 q-61 -78 -92 -111l-113 -106l-337 -312h587q63 5 90 -42.5t0 -95.5t-90 -44h-768q-53 0 -83.5 31.5t-30.5 77.5z" />
<glyph unicode="3" horiz-adv-x="1218" d="M119 141q0 33 22 57.5t56 24.5q13 0 59 -12q121 -47 268 -47q144 0 232 69t88 195q0 137 -103 199q-101 61 -247 61h-45q-95 0 -95 78t95 78h59q130 0 209.5 52.5t79.5 154.5t-78.5 160.5t-198.5 58.5q-92 0 -207 -33q-41 -8 -57 -8q-36 0 -59 24.5t-23 61.5q0 65 82 92 q137 49 297 49q206 0 334 -98q129 -99 129 -273q0 -113 -69.5 -200.5t-190.5 -122.5q147 -32 231 -124t84 -241q0 -204 -149 -311q-151 -109 -387 -109q-197 0 -342 68q-74 30 -74 96z" />
<glyph unicode="4" horiz-adv-x="1292" d="M84 436q0 45 76 139l600 768l43 52q17 17 46.5 31t61.5 14q52 0 85.5 -31.5t33.5 -87.5v-825h86q86 -3 86 -78q0 -79 -86 -82h-86v-227q0 -54 -30 -84.5t-78 -30.5q-50 0 -78.5 30t-28.5 85v227h-618q-52 0 -82.5 26.5t-30.5 73.5zM307 496h508v647z" />
<glyph unicode="5" horiz-adv-x="1198" d="M117 141q0 38 23 64t59 26q21 0 55 -12q134 -57 268 -57q150 0 250 86q98 85 98 223q0 130 -86 212.5t-217 82.5q-91 0 -192 -49q-81 -40 -150 -4q-63 34 -51 133l64 491q12 97 110 97h606q63 5 90 -43t0 -96t-90 -44h-555l-51 -397q118 74 270 74q221 0 351 -127 q129 -126 129 -326q0 -220 -150 -358q-152 -140 -397 -140q-186 0 -356 72q-78 35 -78 92z" />
<glyph unicode="6" horiz-adv-x="1337" d="M131 670q0 224 70 409q42 114 104 191q70 84 180.5 135t245.5 51q175 0 330 -55q80 -27 80 -86q0 -36 -23.5 -62.5t-60.5 -27.5q-37 0 -64 8q-116 39 -248 39q-198 0 -306 -141t-109 -418q51 103 159 163t240 60q214 0 352 -123q142 -121 142 -342q0 -216 -144 -354 q-146 -140 -374 -140q-287 0 -431 193q-143 192 -143 500zM371 461q0 -128 84 -221q87 -90 233 -90q145 0 227 88q86 89 86 223q0 138 -84 222.5t-229 84.5q-141 0 -229 -88q-88 -85 -88 -219z" />
<glyph unicode="7" horiz-adv-x="1163" d="M107 1295q-25 48 0 96t86 43h743q103 0 129.5 -67t-29.5 -177l-516 -1118q-38 -78 -100 -78q-44 0 -73.5 25t-29.5 65q0 20 17 63l510 1104h-651q-61 -4 -86 44z" />
<glyph unicode="8" horiz-adv-x="1318" d="M121 399q0 132 82.5 227t222.5 134q-110 31 -174 113t-64 198q0 179 134 283q132 102 337 102q206 0 338 -102q133 -103 133 -283q0 -116 -63.5 -198t-173.5 -113q140 -39 222.5 -134t82.5 -227q0 -206 -154 -315q-152 -107 -385 -107t-385 107q-153 108 -153 315z M342 406q0 -122 92 -193q92 -68 225 -68q134 0 226 68q92 71 92 193q0 118 -88 188t-230 70t-229.5 -70t-87.5 -188zM399 1057q0 -98 70 -159.5t190 -61.5t190.5 61.5t70.5 159.5q0 103 -73 164t-188 61q-114 0 -187 -61t-73 -164z" />
<glyph unicode="9" horiz-adv-x="1304" d="M104 963q0 215 142 354t381 139q281 0 422 -194q141 -193 141 -500q0 -227 -72 -410q-40 -107 -106 -188q-70 -84 -181.5 -135.5t-248.5 -51.5q-190 0 -332 56q-80 30 -80 98q0 37 22 60.5t62 23.5q18 0 51 -10q136 -43 258 -43q203 0 314 142t112 417 q-49 -102 -156.5 -162.5t-238.5 -60.5q-214 0 -352 120q-138 123 -138 345zM324 973q0 -138 84.5 -222.5t230.5 -84.5q136 0 225 86q88 88 88 219q0 129 -86 221q-83 92 -227 92q-145 0 -230 -87t-85 -224z" />
<glyph unicode=":" horiz-adv-x="567" d="M160 160q0 51 36 88t87 37q54 0 89.5 -35.5t35.5 -89.5t-35.5 -88.5t-89.5 -34.5q-52 0 -87.5 35t-35.5 88zM160 891q0 51 36 88t87 37q53 0 89 -36.5t36 -88.5q0 -54 -35.5 -87.5t-89.5 -33.5q-52 0 -87.5 34t-35.5 87z" />
<glyph unicode=";" horiz-adv-x="634" d="M176 94q0 54 36.5 89.5t90.5 35.5q72 0 116 -53.5t44 -134.5t-47.5 -152t-120.5 -117q-29 -16 -43 -16q-20 0 -33.5 13t-13.5 32q0 23 28 45q99 76 99 170q-20 -20 -53 -20q-49 0 -76 29t-27 79zM186 834q0 51 37 87.5t88 36.5q54 0 90.5 -36.5t36.5 -87.5 q0 -54 -36.5 -88.5t-90.5 -34.5q-52 0 -88.5 35t-36.5 88z" />
<glyph unicode="&#x3c;" horiz-adv-x="913" d="M125 690q0 58 61 88l435 219q23 13 43 13q28 0 47 -18.5t24 -45.5q9 -55 -49 -82l-375 -174l377 -172q56 -26 47 -84q-5 -27 -24 -45t-45 -18q-22 0 -43 12l-437 221q-61 34 -61 86z" />
<glyph unicode="=" horiz-adv-x="1050" d="M168 520q0 35 23.5 54.5t62.5 19.5h549q86 0 86 -74q0 -78 -86 -78h-549q-39 0 -62.5 21t-23.5 57zM168 848q0 35 23.5 54.5t62.5 19.5h549q86 0 86 -74q0 -78 -86 -78h-549q-39 0 -62.5 21t-23.5 57z" />
<glyph unicode="&#x3e;" horiz-adv-x="913" d="M195 434q-9 58 47 84l376 172l-374 174q-58 27 -49 82q5 27 24 45.5t47 18.5q20 0 43 -13l434 -219q62 -30 62 -88q0 -51 -62 -86l-436 -221q-21 -12 -43 -12q-26 0 -45 18t-24 45z" />
<glyph unicode="?" horiz-adv-x="1038" d="M113 1292q-3 58 57 92q129 72 297 72q183 0 311 -94q129 -94 129 -270q0 -84 -37.5 -154t-97.5 -115q-21 -16 -66 -47.5t-69.5 -51t-54 -48.5t-43 -59.5t-13.5 -65.5v-72q0 -40 -25 -63t-63 -23q-90 0 -90 94v74q0 57 19 104.5t49.5 81t67.5 63.5t74 58t67.5 57t49.5 68 t19 84q0 90 -67 143.5t-172 53.5q-75 0 -154 -29l-82 -31q-47 -10 -75.5 14t-30.5 64zM311 98q0 55 37.5 91t93.5 36t91.5 -35.5t35.5 -91.5q0 -54 -35.5 -88.5t-91.5 -34.5t-93.5 34.5t-37.5 88.5z" />
<glyph unicode="@" horiz-adv-x="1908" d="M121 590q0 404 229 620q233 222 615 222q140 0 264 -30t231 -95.5t183.5 -162t120.5 -237t44 -313.5q0 -214 -91.5 -328t-264.5 -114q-216 0 -250 178q-26 -73 -110 -125.5t-195 -52.5q-129 0 -211 70.5t-82 195.5q0 135 96 200.5t258 65.5q52 0 199 -12v63q1 94 -51 135 t-156 41q-100 0 -198 -26q-70 -15 -82 39q-12 60 55 75q146 35 264 35q157 0 242.5 -72t85.5 -217v-335q0 -136 141 -136q105 0 151 77t46 231q0 159 -39 283.5t-103 202t-154 128t-185 70.5t-203 20q-330 0 -514.5 -180.5t-184.5 -517.5q0 -334 180 -512t498 -178 q146 0 281 36q79 15 94 -43q18 -64 -53 -88q-157 -53 -334 -53q-360 0 -590 219q-227 217 -227 621zM754 424q0 -76 48.5 -113t127.5 -37q98 0 163 57.5t64 147.5v92q-161 11 -176 11q-227 0 -227 -158z" />
<glyph unicode="A" horiz-adv-x="1396" d="M104 147l433 1168q46 131 186 131q142 0 188 -131l430 -1165q11 -31 11 -57q0 -32 -17 -56q-30 -43 -92 -43q-71 0 -106 96l-109 287h-608l-109 -287q-35 -96 -110 -96q-61 0 -91 44q-17 24 -17 55q0 25 11 54zM477 551h494l-244 686h-6z" />
<glyph unicode="B" horiz-adv-x="1445" d="M203 106v1221q0 106 106 109h543q196 0 313 -101.5t117 -277.5q0 -129 -63 -213t-156 -111q121 -24 196.5 -113.5t75.5 -230.5q0 -181 -127 -287q-126 -102 -307 -102h-592q-106 0 -106 106zM424 184h440q104 0 170 63t66 165q0 99 -63 164t-171 65h-442v-457zM424 813 h414q96 0 154.5 60t58.5 155q0 101 -65 163q-63 60 -153 60h-6h-403v-438z" />
<glyph unicode="C" horiz-adv-x="1409" d="M111 719q0 337 217 536q219 201 563 201q173 -3 309 -57q82 -35 82 -100q0 -40 -28 -66q-24 -23 -63 -23h-3q-26 0 -121 29q-92 28 -180 31q-244 0 -391 -156q-148 -154 -148 -395q0 -244 150 -400q149 -155 395 -155q94 0 186 29q89 30 115 30h3q40 -1 64 -23 q27 -25 27 -64q0 -66 -82 -101q-134 -58 -317 -58q-344 0 -563 201q-215 200 -215 541z" />
<glyph unicode="D" horiz-adv-x="1488" d="M203 106v1221q0 50 27.5 78.5t78.5 28.5h402q174 0 342 -91q320 -188 323 -626q0 -207 -81.5 -371.5t-241.5 -255.5q-159 -90 -342 -90h-402q-106 0 -106 106zM426 182h236q164 0 292 90q185 126 185 445q0 334 -203 457q-121 75 -274 75h-236v-1067z" />
<glyph unicode="E" horiz-adv-x="1343" d="M203 106v1221q0 50 27.5 78.5t78.5 28.5h803h12q54 0 77 -43q13 -24 13 -48q0 -25 -13 -49q-24 -46 -82 -45h-7h-686v-461h575q5 0 10 1q56 0 80 -44q13 -24 13 -47.5t-13 -46.5q-24 -43 -80 -43h-10h-575v-424h709q48 0 75 -29t27 -63t-27 -63t-75 -29h-826 q-106 0 -106 106z" />
<glyph unicode="F" horiz-adv-x="1284" d="M203 109v1218q0 50 27.5 78.5t78.5 28.5h805h11q52 0 75 -43q12 -24 12 -48q0 -25 -12 -49q-24 -46 -79 -45h-7h-688v-477h580q45 0 71 -28q27 -29 27 -63q0 -33 -26 -61t-72 -28h-580v-483q0 -53 -31 -84t-82 -31q-52 0 -81 30t-29 85z" />
<glyph unicode="G" horiz-adv-x="1554" d="M113 717q0 325 219 532t561 207q185 0 362 -74q73 -31 73 -89q0 -6 -1 -13q-5 -39 -30 -62q-21 -19 -54 -19q-6 0 -12 1q-40 8 -127 35q-110 35 -217 35q-238 0 -387 -162q-150 -159 -150 -393q0 -240 144 -396q143 -155 391 -155q203 0 352 119v301h-307q-7 -1 -13 -1 q-46 0 -67 39q-11 21 -11 43t11 45q22 40 71 40h9h389q51 0 79.5 -28t28.5 -79v-367q0 -73 -53 -114q-215 -185 -489 -185q-345 0 -559 205q-213 207 -213 535z" />
<glyph unicode="H" horiz-adv-x="1593" d="M203 109v1216q-1 8 -1 15q0 60 53 86q30 15 59 15l59 -15q54 -27 53 -88v-13v-522h741v522q0 55 30.5 85t80.5 30q52 0 82.5 -30t30.5 -85v-1216q0 -53 -30.5 -84t-82.5 -31q-50 0 -80.5 30t-30.5 85v507h-741v-507q1 -7 0 -13q0 -61 -53 -88q-30 -15 -59 -15l-59 15 q-53 26 -53 86q0 7 1 15z" />
<glyph unicode="I" horiz-adv-x="626" d="M203 109v1216q-1 8 -1 16q0 58 52 85q30 15 60 15t60 -15q53 -26 53 -85q0 -8 -1 -16v-1216q0 -53 -31 -84t-82 -31q-52 0 -81 30t-29 85z" />
<glyph unicode="J" horiz-adv-x="1169" d="M104 227q0 34 23.5 59t60.5 25q45 0 80 -35q112 -112 228 -112q121 0 196.5 81t75.5 224v854q-1 8 -1 16q0 60 53 87q30 16 60 16t60 -16q52 -26 52 -86q0 -8 -1 -17v-784q0 -91 -8 -148q-23 -198 -147.5 -306t-325.5 -108q-236 0 -373 168q-33 33 -33 82z" />
<glyph unicode="K" horiz-adv-x="1388" d="M203 109v1216q0 55 28.5 85t81.5 30t82 -31.5t29 -83.5v-369l-6 -251l6 -3l633 680q34 35 52.5 46.5t51.5 11.5q58 0 80 -54q8 -18 8 -35q0 -37 -35 -77l-362 -395l412 -707q20 -34 20 -68q0 -26 -12 -53q-26 -57 -96 -57q-43 0 -70 19.5t-53 64.5l-363 653l-266 -280 v-342q0 -54 -30 -84.5t-81 -30.5q-53 0 -81.5 30t-28.5 85z" />
<glyph unicode="L" horiz-adv-x="1206" d="M203 106v1219q0 115 110 115q52 0 82.5 -30t30.5 -85v-1143h616h12q55 0 79 -42q14 -24 13.5 -48t-13.5 -48q-25 -44 -81 -44h-10h-733q-106 0 -106 106z" />
<glyph unicode="M" horiz-adv-x="1931" d="M203 109v1181q0 70 42 110t101 40q66 0 104.5 -35t77.5 -121l435 -956h6l434 958q41 84 79.5 119t104.5 35q61 0 102.5 -39t41.5 -109v-1183q0 -53 -30.5 -84t-82.5 -31q-50 0 -80.5 30t-30.5 85v403l15 582h-2l-410 -899q-46 -101 -143 -101q-99 0 -146 105l-407 895h-4 l16 -582v-403q0 -53 -30.5 -84t-80.5 -31q-52 0 -82 30t-30 85z" />
<glyph unicode="N" horiz-adv-x="1572" d="M203 109v1191q0 67 35 103.5t100 36.5q86 0 145 -90l670 -1008h4l-10 467v516q0 55 30.5 85t82.5 30q50 0 80 -30t30 -85v-1188q0 -68 -37 -105.5t-104 -37.5q-87 0 -146 96l-663 1010h-4l10 -465v-526q0 -54 -31.5 -84.5t-83.5 -30.5q-50 0 -79 30t-29 85z" />
<glyph unicode="O" horiz-adv-x="1726" d="M113 717q0 327 211 532q213 207 538 207q328 0 541 -207q211 -205 211 -532q0 -330 -211 -535t-541 -205q-327 0 -538 205t-211 535zM350 717q0 -247 146 -402q148 -151 368 -151q222 0 367 151q145 154 145 402t-145 399q-145 154 -369 154q-221 0 -366 -154 q-146 -155 -146 -399z" />
<glyph unicode="P" horiz-adv-x="1441" d="M203 109v1218q0 50 27.5 78.5t76.5 28.5h615q188 0 307 -131q121 -133 121 -314q0 -184 -119 -315q-116 -131 -303 -131h-502v-434q0 -53 -31 -84t-82 -31q-52 0 -81 30t-29 85zM426 727h442q108 0 178 73.5t70 186.5q0 116 -72.5 189t-187.5 73h-430v-522z" />
<glyph unicode="Q" horiz-adv-x="1726" d="M113 717q0 327 211 532q213 207 538 207q328 0 541 -207q211 -205 211 -532q0 -244 -122 -425t-331 -257q123 -63 301 -113q84 -20 84 -89v-9q-5 -53 -45 -78q-23 -14 -54 -14q-23 0 -50 8q-183 50 -500 242q-10 -2 -49 -2q-325 3 -531 206q-204 204 -204 531zM350 717 q0 -247 146 -402q148 -151 368 -151q222 0 367 151q145 154 145 402t-145 399q-145 154 -369 154q-221 0 -366 -154q-146 -155 -146 -399z" />
<glyph unicode="R" horiz-adv-x="1427" d="M203 109v1218q0 50 27.5 78.5t76.5 28.5h592q198 0 318 -123q122 -119 122 -303q0 -147 -79 -256t-218 -150l228 -440q20 -36 20 -76q0 -45 -30 -68.5t-74 -23.5q-69 0 -109 76l-254 508h-397v-469q0 -53 -31 -84t-82 -31q-52 0 -81 30t-29 85zM426 762h440 q103 0 169.5 70.5t66.5 175.5q0 108 -68.5 174.5t-179.5 66.5h-428v-487z" />
<glyph unicode="S" horiz-adv-x="1247" d="M127 160q4 46 40 68q22 13 49 14q18 0 38 -6l45 -17l100 -33q105 -24 203 -24q307 0 307 211q0 82 -61 139q-26 26 -74 45q-76 30 -86 33l-102 33l-137 43q-49 18 -121 53q-69 36 -107 78q-94 106 -94 256q0 199 134 301t368 102q244 0 397 -72q64 -31 64 -88v-10 q-11 -84 -87 -84q-23 0 -53 8q-57 21 -121 37q-97 25 -180 25q-134 -1 -207 -54t-73 -145q0 -82 63 -141q29 -26 76 -47l82 -35l100 -31q128 -40 174 -59q60 -22 140 -74q147 -97 147 -299q0 -207 -147 -309q-146 -101 -373 -101h-13q-124 3 -237 23q-109 19 -182 51 q-72 35 -72 99v10z" />
<glyph unicode="T" horiz-adv-x="1327" d="M70 1391q23 43 76 43h12h1011h12q55 0 77 -43q13 -24 12 -48q0 -24 -13 -48q-24 -44 -79 -44h-9h-393v-1142q0 -55 -31 -85t-83 -30t-81.5 30t-29.5 85v1142h-393h-9q-55 0 -79 44q-13 24 -13 48t13 48z" />
<glyph unicode="U" horiz-adv-x="1501" d="M188 481v844q-1 8 -1 16q1 58 53 85q30 15 60 15t60 -15q53 -26 53 -85q0 -8 -1 -16v-850q0 -140 94 -225.5t248 -85.5q150 0 243 86t93 225v850q-1 8 -1 16q1 58 53 85q30 15 59.5 15t59.5 -15q53 -26 53 -85q0 -8 -1 -16v-844q0 -228 -156 -366q-153 -138 -405 -138 q-258 0 -412 142q-152 143 -152 362z" />
<glyph unicode="V" horiz-adv-x="1337" d="M68 1337q0 46 34 74.5t80 28.5q78 0 105 -86l223 -621l158 -475h4l155 471l224 625q27 86 104 86q46 0 79.5 -28.5t33.5 -74.5q0 -20 -11 -53l-421 -1163q-47 -127 -168 -127q-118 0 -168 127l-422 1163q-10 45 -10 53z" />
<glyph unicode="W" horiz-adv-x="2033" d="M84 1331q0 49 32 79t83 30q87 0 108 -90l164 -590q23 -77 70 -271l53 -215h4l274 1043q27 123 146 123q118 0 145 -123l275 -1043h4q7 22 57 232q55 215 70 270l160 574q27 90 108 90q51 0 82 -29t31 -78q0 -32 -8 -59l-336 -1153q-38 -127 -160 -127q-123 0 -158 127 l-270 987l-273 -987q-35 -127 -157 -127q-123 0 -158 127l-336 1153q-10 38 -10 57z" />
<glyph unicode="X" horiz-adv-x="1384" d="M117 51q-11 23 -11 47q0 39 29 78l445 555l-433 524q-33 44 -33 82q0 24 13 45q34 58 98 58q51 0 92 -47l402 -504l403 500q39 51 99 51q66 0 94 -60q10 -21 10 -42q0 -38 -31 -78l-432 -531l443 -551q30 -41 30 -79q0 -24 -12 -48q-26 -57 -96 -57q-53 0 -90 49 l-420 524l-410 -522q-39 -51 -96 -51q-68 0 -94 57z" />
<glyph unicode="Y" horiz-adv-x="1271" d="M66 1348q0 38 31 65t73 27q54 0 94 -64l371 -610h4l369 610q40 64 94 64q43 0 73.5 -26.5t30.5 -67.5q0 -32 -22 -68l-434 -698v-471q0 -115 -113 -115t-113 115v471l-436 698q-22 36 -22 70z" />
<glyph unicode="Z" horiz-adv-x="1302" d="M90 98q0 47 43 105l782 1050l-2 4l-344 -6h-348q-46 0 -73 27t-27 65q0 39 27 65t73 26h862q54 0 87.5 -26t33.5 -75t-49 -116l-776 -1039l2 -4l399 8h324q43 0 71.5 -26.5t28.5 -63.5q0 -39 -28 -65.5t-72 -26.5h-895q-119 0 -119 98z" />
<glyph unicode="[" horiz-adv-x="671" d="M188 -258v1608q0 49 28.5 77.5t78.5 28.5h176q94 0 94 -82q0 -36 -25 -58t-69 -22h-106v-1497h106q94 0 94 -80q0 -36 -25.5 -59t-68.5 -23h-174q-51 0 -80 28t-29 79z" />
<glyph unicode="\" horiz-adv-x="956" d="M31 1434q1 34 24.5 53.5t57.5 19.5q59 0 86 -71l745 -1692q12 -27 12 -47q-1 -34 -25 -55t-57 -21q-58 0 -86 72l-745 1691q-12 27 -12 50z" />
<glyph unicode="]" horiz-adv-x="673" d="M109 -283q0 80 96 80h104v1497h-104q-44 0 -70 22t-26 58q0 38 25 60t71 22h174q51 0 78.5 -28t27.5 -78v-1608q0 -107 -106 -107h-174q-44 0 -70 23t-26 59z" />
<glyph unicode="^" horiz-adv-x="962" d="M172 1229q0 28 23 51l198 217q35 35 88 35t88 -35l199 -217q25 -22 25 -51q0 -23 -15.5 -38t-40.5 -15q-35 0 -63 28l-193 191l-190 -191q-28 -28 -66 -28q-23 0 -38 15t-15 38z" />
<glyph unicode="_" horiz-adv-x="1218" d="M158 -211q0 76 90 76h729q88 0 88 -76t-88 -76h-729q-41 0 -65.5 20.5t-24.5 55.5z" />
<glyph unicode="`" horiz-adv-x="681" d="M188 1456q0 34 26 56t62 22q55 0 82 -68l72 -182q17 -43 0.5 -69.5t-53.5 -26.5q-34 0 -64 41l-100 166q-25 36 -25 61z" />
<glyph unicode="a" horiz-adv-x="1216" d="M86 307q0 173 127 258.5t352 85.5q67 0 252 -18v78q0 113 -65.5 163t-194.5 50q-66 0 -266 -37q-13 -2 -25 -2q-34 1 -54 15q-31 21 -30 63q0 62 74 79q172 41 340 41q428 0 428 -362v-490q0 -19 4 -30.5t15.5 -17.5t19 -7t27.5 -3q7 -1 10 -1q65 -9 65 -78 q0 -47 -37 -74q-45 -28 -133 -28q-67 0 -115.5 35t-48.5 94v51q-43 -88 -138 -139t-232 -51q-170 0 -272.5 85t-102.5 240zM303 324q0 -89 58.5 -138t152.5 -49q125 0 213 76q90 78 90 186v99q-97 20 -231 20q-132 0 -207.5 -48.5t-75.5 -145.5z" />
<glyph unicode="b" horiz-adv-x="1353" d="M168 94v1295q0 116 106 116q50 0 78.5 -30t28.5 -86v-504q55 92 153 145t220 53q234 0 364 -161q133 -160 133 -392q0 -231 -133 -391q-133 -157 -370 -157q-124 0 -224 55.5t-155 159.5l-9 -115q-1 -41 -28.5 -64.5t-69.5 -23.5q-43 0 -68.5 26.5t-25.5 73.5zM381 530 q0 -160 90 -270q91 -108 234 -108q146 0 233 106q90 110 90 272q0 165 -90 275q-89 108 -233 108q-143 0 -234 -108q-90 -110 -90 -275z" />
<glyph unicode="c" horiz-adv-x="1083" d="M98 530q0 245 158 400q159 153 414 153q149 0 250 -43q59 -24 59 -75q-1 -37 -27 -61q-20 -18 -50 -19q-9 0 -19 2l-68 14q-60 14 -117 14q-192 0 -286 -114q-97 -117 -97 -269q0 -151 97 -268q97 -112 286 -112q46 0 115 16t84 16h6q71 0 80 -71q1 -5 1 -10 q0 -49 -56 -76q-86 -45 -254 -45q-258 0 -418 151q-158 155 -158 397z" />
<glyph unicode="d" horiz-adv-x="1351" d="M102 530q0 231 134 392q130 161 364 161q122 0 220 -53t153 -145v504q0 56 28 86t78 30q107 0 107 -116v-1295q0 -47 -25.5 -73.5t-68.5 -26.5q-42 0 -70 24t-29 64l-8 115q-55 -104 -155 -159.5t-224 -55.5q-237 0 -370 157q-134 161 -134 391zM326 530q0 -162 90 -272 q87 -106 233 -106q143 0 232 108q92 109 92 270q0 166 -92 275q-89 108 -232 108q-145 0 -233 -108q-90 -110 -90 -275z" />
<glyph unicode="e" horiz-adv-x="1220" d="M100 528q0 243 148 400q149 155 395 155q95 0 173 -23.5t130 -65.5t90 -94t58.5 -114t29.5 -119.5t9 -117.5q-3 -86 -95 -86h-714q1 -147 102 -231.5t268 -84.5q71 0 131.5 13t100 27.5t49.5 15.5q13 2 24 2q63 0 70 -72v-9q0 -48 -61 -79q-129 -63 -330 -63 q-271 0 -424 147q-154 151 -154 399zM324 604h610q0 126 -68 221q-66 97 -217 97q-136 0 -224 -85.5t-101 -232.5z" />
<glyph unicode="f" horiz-adv-x="772" d="M68 981q0 65 75 74l93 10v109q0 175 73.5 259.5t239.5 84.5q63 0 119 -15q73 -15 73 -80q0 -35 -20 -56t-55 -21q-4 0 -31 3t-37 3q-84 0 -115.5 -37.5t-31.5 -132.5v-117h174q41 0 64.5 -20.5t23.5 -55.5q0 -33 -24 -55.5t-64 -22.5h-174v-800q0 -56 -30 -86.5 t-79 -30.5q-50 0 -78 30.5t-28 86.5v800h-91q-36 0 -56.5 19.5t-20.5 50.5z" />
<glyph unicode="g" horiz-adv-x="1155" d="M109 -70q0 132 141 205q-113 46 -113 168q0 50 32 97.5t81 74.5q-48 39 -77.5 106t-29.5 140q0 171 115.5 266.5t310.5 95.5q71 0 142 -18h284q90 0 90 -76q0 -75 -71 -84l-92 -12q75 -63 75 -191q0 -154 -111 -245.5t-304 -91.5q-129 0 -201 38q-57 -34 -57 -88 q0 -63 106 -88q29 -7 74 -10q66 -2 166 -2h20q184 0 273.5 -68t89.5 -190q0 -94 -44.5 -160t-121.5 -98q-129 -53 -289 -53q-489 0 -489 284zM303 -47q0 -48 24.5 -80.5t71.5 -44.5q87 -25 189 -25q268 0 268 146q0 61 -43.5 87.5t-138.5 26.5q-218 0 -291 17 q-80 -53 -80 -127zM350 719q0 -99 56.5 -154t164.5 -55q107 0 163.5 54.5t56.5 154.5t-56.5 155.5t-156.5 55.5q-109 0 -168.5 -55.5t-59.5 -155.5z" />
<glyph unicode="h" horiz-adv-x="1263" d="M168 113v1276q0 56 29 86t79 30q49 0 78 -30t29 -86v-486q104 180 340 180q185 0 289 -115.5t104 -344.5v-510q0 -56 -29 -87.5t-79 -31.5q-48 0 -77.5 31.5t-29.5 87.5v514q0 137 -61.5 211.5t-177.5 74.5q-131 0 -205 -91.5t-74 -231.5v-477q0 -56 -29.5 -87.5 t-77.5 -31.5q-50 0 -79 31.5t-29 87.5z" />
<glyph unicode="i" horiz-adv-x="602" d="M90 983q0 38 26 60t70 22h133q51 0 80 -28t29 -79v-854q0 -53 -28 -81.5t-78 -28.5q-49 0 -78 28.5t-29 81.5v768l-57 19q-68 21 -68 92zM190 1321v33q0 51 32 79.5t87 28.5q58 0 90.5 -27.5t32.5 -80.5v-33q0 -50 -33.5 -78.5t-89.5 -28.5q-52 0 -85.5 28.5t-33.5 78.5z " />
<glyph unicode="j" horiz-adv-x="612" d="M-49 -254q0 38 22.5 62t57.5 24q7 0 31 -3t34 -3q123 0 123 145v901l-57 19q-66 21 -66 92q0 82 94 82h138q50 0 78 -28t28 -79v-985q0 -157 -79 -242t-230 -85q-85 0 -125 24q-49 27 -49 76zM197 1321v33q0 51 32 79.5t86 28.5q58 0 90.5 -27.5t32.5 -80.5v-33 q0 -50 -33.5 -78.5t-89.5 -28.5q-52 0 -85 28.5t-33 78.5z" />
<glyph unicode="k" horiz-adv-x="1097" d="M168 109v1284q0 51 29.5 81.5t76.5 30.5q50 0 79.5 -30.5t29.5 -81.5v-559l-10 -295l223 245l209 232q49 55 94 55q68 0 92 -59q10 -21 10 -40q0 -36 -32 -69l-275 -291l307 -456q22 -33 22 -64q0 -23 -11 -45q-24 -53 -84 -53q-70 0 -119 76l-260 405l-166 -172v-194 q0 -53 -30.5 -84t-80.5 -31q-48 0 -76 30.5t-28 84.5z" />
<glyph unicode="l" horiz-adv-x="651" d="M176 209v1186q0 53 27.5 81.5t77.5 28.5t79 -28.5t29 -81.5v-1164q0 -43 17.5 -60t58.5 -17q4 0 17 1t16 1q29 0 45 -20.5t16 -53.5q0 -46 -45 -72q-51 -28 -127 -28q-211 0 -211 227z" />
<glyph unicode="m" horiz-adv-x="1861" d="M168 104v869q0 45 25 71.5t69 26.5q81 0 90 -94l13 -96q37 92 124 147t183 55q114 0 196.5 -55t118.5 -158q44 95 136 154t210 59q186 0 284.5 -103t98.5 -310v-566q1 -7 1 -15q1 -58 -51 -83q-29 -14 -58 -14l-58 14q-50 25 -50 82q0 8 1 16v580q0 106 -56.5 167.5 t-160.5 61.5q-107 0 -172 -76t-65 -186v-547q1 -7 1 -14q0 -58 -52 -84q-29 -14 -58 -14q-30 0 -58 14q-50 25 -50 82q0 8 1 16v584q0 103 -58 164t-157 61q-106 0 -169.5 -74t-63.5 -182v-551q1 -7 1 -15q0 -57 -52 -83q-29 -15 -58 -16l-56 14q-50 25 -51 82q0 8 1 16z " />
<glyph unicode="n" horiz-adv-x="1267" d="M168 104v867q0 100 90 100q78 0 90 -88l14 -117q42 95 132.5 156t228.5 61q185 0 289 -115.5t104 -344.5v-519q0 -53 -29 -81.5t-79 -28.5q-49 0 -78 28.5t-29 81.5v523q0 137 -61.5 211.5t-177.5 74.5q-131 0 -205 -91.5t-74 -231.5v-486q0 -53 -29 -81.5t-78 -28.5 q-50 0 -79 28.5t-29 81.5z" />
<glyph unicode="o" horiz-adv-x="1343" d="M98 532q0 250 164 400q165 151 412 151q242 0 407 -151q164 -150 164 -397t-164 -400q-163 -153 -407 -153q-247 0 -412 151q-164 153 -164 399zM322 532q0 -169 98 -276q101 -104 252 -104q152 0 250 104q100 106 100 276q0 172 -100 275q-97 106 -250 106 q-155 0 -252.5 -105t-97.5 -276z" />
<glyph unicode="p" horiz-adv-x="1353" d="M168 -244v1213q0 102 98 102q83 0 92 -100l11 -101q52 103 153.5 158t222.5 55q238 0 371 -157q135 -156 135 -391q0 -236 -133 -396q-133 -157 -364 -157q-128 0 -228.5 54t-144.5 148v-428q0 -53 -29 -81.5t-78 -28.5q-50 0 -78 28.5t-28 81.5zM381 535q0 -165 90 -275 q91 -108 234 -108q142 0 231 108q92 109 92 275q0 161 -92 270q-89 108 -231 108q-143 0 -234 -108q-90 -110 -90 -270z" />
<glyph unicode="q" horiz-adv-x="1353" d="M102 535q0 233 134 391q136 157 372 157q122 0 223.5 -55t153.5 -160l10 99q9 104 99 104q94 0 94 -102v-1213q0 -53 -29 -81.5t-78 -28.5q-50 0 -79 28.5t-29 81.5v428q-44 -93 -145 -147.5t-226 -54.5q-231 0 -366 159q-134 161 -134 394zM326 535q0 -165 90 -275 q92 -108 235 -108q141 0 230 108q92 109 92 275q0 161 -92 270q-89 108 -230 108t-233 -108q-92 -109 -92 -270z" />
<glyph unicode="r" horiz-adv-x="790" d="M168 104v859q0 108 94 108q79 0 88 -86l17 -133q36 80 100 147q71 74 160 74q110 0 110 -98q0 -87 -112 -111q-113 -24 -177.5 -103t-64.5 -210v-447q0 -53 -29.5 -81.5t-79.5 -28.5q-48 0 -77 28.5t-29 81.5z" />
<glyph unicode="s" horiz-adv-x="1011" d="M111 780q1 147 112 225t291 78q166 0 297 -49q63 -25 63 -85v-5q-2 -29 -23.5 -48t-53.5 -19q-14 0 -52 10q-101 39 -213 39h-5q-96 0 -149 -36q-54 -38 -54 -102q0 -45 32 -77q23 -20 52 -35t52.5 -23t84.5 -28q5 -2 14.5 -4.5t13.5 -4.5q88 -27 135 -46.5t103 -53.5 q117 -72 117 -227q-2 -149 -116 -229q-112 -78 -295 -78h-9q-222 3 -342 63q-53 25 -53 80v6q3 68 71 68q10 0 56 -11q131 -46 247 -49q111 0 167.5 39.5t56.5 104.5q0 33 -17.5 61t-50.5 41q-47 27 -70 33q-25 9 -38 12q-11 5 -50.5 17t-40.5 12q-79 24 -125.5 44t-99.5 54 q-108 72 -108 223z" />
<glyph unicode="t" horiz-adv-x="815" d="M53 983q0 58 66 70l96 12l23 219q9 94 98 94q91 0 94 -96v-217h215q56 -1 79 -39q12 -19 12 -38q0 -18 -12 -38q-23 -38 -79 -39h-215v-585q0 -99 34.5 -142t110.5 -43q2 0 9.5 1.5t24.5 4t34 5.5q10 2 19 2q26 0 46 -13q26 -17 25 -57q0 -58 -57 -78q-64 -24 -154 -24 q-307 0 -307 344v585h-72q-90 0 -90 72z" />
<glyph unicode="u" horiz-adv-x="1253" d="M152 434v527q0 53 29 81.5t79 28.5q48 0 76.5 -28.5t28.5 -81.5v-523q0 -286 256 -286q115 0 188.5 84t73.5 215v510q0 53 29 81.5t79 28.5q49 0 78 -28.5t29 -81.5v-867q0 -100 -90 -100q-81 0 -90 88l-13 100q-111 -200 -348 -200q-195 0 -300 112t-105 340z" />
<glyph unicode="v" horiz-adv-x="1132" d="M131 922q-11 29 -11 54q0 29 15 52q27 43 90 43q74 0 101 -88l262 -752h4l260 752q27 88 100 88q62 0 90 -43q15 -23 15 -53q0 -25 -10 -53l-297 -807q-47 -121 -162 -121q-118 0 -162 121z" />
<glyph unicode="w" horiz-adv-x="1757" d="M133 924q-9 29 -9 54q0 30 14 52q25 40 87 41q74 0 101 -88l227 -747h6l211 733q27 102 129 102q100 0 127 -102l211 -733h8l225 745q27 90 101 90q63 -1 89 -41q14 -23 14 -53q0 -24 -9 -53l-262 -813q-35 -117 -154 -117q-117 0 -151 117l-199 671h-2l-199 -671 q-34 -117 -151 -117q-119 0 -154 117z" />
<glyph unicode="x" horiz-adv-x="1132" d="M119 51q-7 20 -7 38q0 36 27 67l316 385l-293 354q-32 36 -32 76q0 18 7 37q21 63 90 63q54 0 92 -47l269 -338l270 336q43 49 92 49q69 0 90 -61q8 -23 8 -43q0 -34 -24 -58l-305 -364l311 -381q32 -36 32 -75q0 -18 -7 -38q-20 -57 -90 -57q-54 0 -95 47l-282 360 l-283 -358q-43 -49 -96 -49q-70 0 -90 57z" />
<glyph unicode="y" horiz-adv-x="1169" d="M131 918q-11 29 -11 54q0 29 14 54q27 45 89 45q72 0 107 -90l143 -356q26 -73 141 -408h9l143 418l135 348q30 88 103 88q66 0 93 -45q14 -24 14 -52q0 -25 -11 -54l-367 -930q-72 -185 -153.5 -266.5t-212.5 -81.5q-73 0 -134 18q-73 23 -73 85q0 81 78 81q8 0 45 -6 t49 -6q107 0 166 188z" />
<glyph unicode="z" horiz-adv-x="1083" d="M88 104q0 57 49 109l602 690l-2 4l-338 -4h-192q-42 0 -67 22.5t-25 59.5q0 36 25 58t67 22h667q119 0 119 -104q0 -51 -49 -109l-594 -688l2 -8l330 6h223q90 0 90 -80q0 -37 -24 -59.5t-66 -22.5h-698q-55 0 -87 28t-32 76z" />
<glyph unicode="{" horiz-adv-x="720" d="M92 549q0 47 39 59q90 27 90 117v426q0 154 66 229.5t225 75.5q53 0 81 -22.5t28 -61.5q0 -78 -99 -78q-123 0 -123 -143v-444q0 -136 -116 -160q116 -24 116 -160v-446q0 -142 123 -142q99 0 99 -78q0 -39 -29.5 -62.5t-79.5 -23.5q-159 0 -225 76t-66 230v428 q0 92 -88 116q-41 15 -41 64z" />
<glyph unicode="|" horiz-adv-x="548" d="M186 -227v1755q0 44 23.5 69t64.5 25q39 0 63.5 -26t24.5 -68v-1755q0 -42 -24.5 -67t-63.5 -25q-41 0 -64.5 24.5t-23.5 67.5z" />
<glyph unicode="}" horiz-adv-x="720" d="M102 -279q0 78 99 78q123 0 123 142v446q0 136 116 160q-116 24 -116 160v444q0 143 -123 143q-99 0 -99 78q0 39 28 61.5t81 22.5q159 0 225 -75.5t66 -229.5v-426q0 -90 90 -117q39 -12 39 -59q0 -52 -41 -64q-88 -27 -88 -116v-428q0 -154 -66 -230t-225 -76 q-50 0 -79.5 23.5t-29.5 62.5z" />
<glyph unicode="&#xa2;" horiz-adv-x="1181" d="M104 698q0 218 136 369q139 151 356 178v117q0 61 61 61q60 0 60 -61v-113q129 -3 219 -43q69 -30 57 -90q-15 -79 -104 -61q-121 26 -176 26q-191 0 -293 -114q-101 -113 -101 -269q0 -155 101 -268t289 -113q59 0 125 17l73 18q86 3 92 -69q3 -59 -55 -86 q-84 -41 -227 -47v-113q0 -62 -62 -62q-59 0 -59 62v117q-222 27 -356 176q-136 151 -136 368z" />
<glyph unicode="&#xa3;" horiz-adv-x="1208" d="M115 92q0 32 12 51q7 13 14 19l39 45q72 84 72 166v252h-49q-70 0 -70 59q0 29 18.5 45t51.5 16h49v265q0 195 117 321q119 125 323 125q162 0 281 -98q53 -47 53 -92q0 -39 -23 -63.5t-61 -24.5q-33 0 -61 22q-85 70 -176 70q-113 0 -172.5 -71t-59.5 -191v-263h404 q69 0 69 -61q0 -59 -69 -59h-404v-228q0 -157 -104 -215h614q50 0 79.5 -24t29.5 -66q0 -43 -29 -67.5t-80 -24.5h-762q-106 0 -106 92z" />
<glyph unicode="&#xa5;" horiz-adv-x="1261" d="M84 1348q0 40 30 66t72 26q61 0 95 -64l348 -606h4l348 606q37 64 94 64q44 0 74.5 -26t30.5 -66q0 -28 -23 -72l-414 -676v-76h195q59 0 59 -53t-59 -53h-195v-92h195q59 0 59 -54q0 -23 -16.5 -38t-42.5 -15h-197v-133q7 -58 -52 -82t-117.5 0t-51.5 82v133h-192 q-64 0 -64 53q0 54 64 54h192v92h-192q-64 0 -64 53t64 53h192v76l-416 676q-20 33 -20 72z" />
<glyph unicode="&#xa8;" horiz-adv-x="1071" d="M209 1356q0 52 29 79t75 27q109 0 109 -106q0 -105 -109 -105q-48 0 -76 27.5t-28 77.5zM643 1356q0 52 29 79t76 27q106 0 106 -106q0 -105 -106 -105q-48 0 -76.5 27.5t-28.5 77.5z" />
<glyph unicode="&#xa9;" horiz-adv-x="1703" d="M127 717q0 301 213 508q212 209 514 209t514 -209q211 -205 211 -508q0 -300 -213 -510q-213 -207 -512 -207q-301 0 -514 207q-213 210 -213 510zM223 715q0 -261 185 -443q184 -178 446 -178q263 0 444 178q185 182 185 443q0 260 -185 442q-183 180 -444 180 q-263 0 -446 -180q-185 -182 -185 -442zM485 717q0 170 113 274q113 107 287 107q118 0 188 -49q39 -23 39 -62q0 -27 -16.5 -44t-46.5 -17q-16 0 -43 10q-52 27 -119 27q-112 0 -179 -71t-67 -175t67 -176t179 -72q67 0 119 27q27 10 43 10q30 0 46.5 -17.5t16.5 -44.5 q0 -38 -39 -61q-71 -47 -188 -47q-174 0 -287 104q-113 107 -113 277z" />
<glyph unicode="&#xab;" horiz-adv-x="1284" d="M106 530q0 26 19 45l342 379q37 43 76 43q27 0 53 -20q61 -52 4 -121l-252 -324l252 -325q53 -74 -6 -121q-29 -20 -55 -20q-37 0 -74 40l-340 379q-19 22 -19 45zM635 485q-36 45 0 90l342 379q37 43 76 43q27 0 53 -20q58 -52 6 -121l-252 -324l250 -325 q56 -71 -4 -121q-26 -20 -53 -20q-39 0 -76 40z" />
<glyph unicode="&#xad;" d="M160 541q0 32 24 51.5t62 19.5h577q41 0 64.5 -19t23.5 -52q0 -76 -88 -76h-577q-86 0 -86 76z" />
<glyph unicode="&#xae;" horiz-adv-x="1243" d="M162 975q0 194 131 325q134 134 330 134q193 0 327 -134q133 -133 133 -325q0 -193 -133 -326t-327 -133q-197 0 -330 133q-131 131 -131 326zM242 975q0 -159 108 -270q112 -109 273 -109q158 0 270 109q111 108 111 270q0 160 -111 268q-111 111 -270 111 q-162 0 -273 -111q-108 -108 -108 -268zM449 770v414q0 16 11 26.5t25 10.5h183q63 0 104 -41.5t41 -104.5q0 -50 -26.5 -86.5t-69.5 -48.5l84 -145q10 -23 10 -33q0 -13 -11 -23t-24 -10q-25 0 -41 29l-100 174h-109v-162q0 -41 -39 -41q-38 0 -38 41zM526 999h142 q29 0 49 22t20 54q0 36 -21.5 57t-53.5 21h-136v-154z" />
<glyph unicode="&#xb4;" horiz-adv-x="681" d="M225 1214.5q-17 26.5 0 67.5l80 180q30 70 82 70q36 0 61 -22t25 -56q0 -25 -22 -61l-113 -166q-26 -39 -59 -39q-37 0 -54 26.5z" />
<glyph unicode="&#xb8;" horiz-adv-x="722" d="M188 -350q8 37 58 28q35 -6 71 -6q103 0 103 72q0 63 -80 63q-3 0 -14.5 -1t-14.5 -1q-32 0 -44 20.5t-1 53.5l51 139h97l-43 -135q76 6 126 -31.5t50 -109.5q0 -81 -60.5 -119.5t-160.5 -38.5q-56 0 -93 13q-53 21 -45 53z" />
<glyph unicode="&#xbb;" horiz-adv-x="1284" d="M215 856q-52 69 6 121q26 20 53 20q39 0 76 -43l342 -379q19 -19 19 -45q0 -23 -19 -45l-340 -379q-37 -40 -76 -40q-27 0 -53 20q-61 46 -6 121l252 325zM727 207l252 325l-252 324q-56 71 6 121q26 20 51 20q41 0 78 -43l340 -379q20 -20 20 -45t-20 -45l-340 -379 q-34 -40 -74 -40q-29 0 -55 20q-61 46 -6 121z" />
<glyph unicode="&#x2c6;" horiz-adv-x="1054" d="M207 1290q0 25 22 47l164 150q35 32 88 32t88 -32l166 -150q23 -23 23 -49q0 -49 -53 -49q-29 0 -64 27l-160 118l-157 -118q-34 -27 -60 -27q-24 0 -40.5 14t-16.5 37z" />
<glyph unicode="&#x2da;" horiz-adv-x="737" d="M186 1368q0 79 54.5 129.5t136.5 50.5q85 0 137.5 -50t52.5 -130t-52.5 -130t-137.5 -50q-82 0 -136.5 50.5t-54.5 129.5zM285 1368q0 -44 24.5 -71t67.5 -27t67.5 27t24.5 71q0 42 -24.5 69t-67.5 27t-67.5 -26t-24.5 -70z" />
<glyph unicode="&#x2dc;" horiz-adv-x="1009" d="M180 1276q0 28 29 57q77 86 176 86q51 0 127 -43q72 -40 120.5 -41t76.5 31q20 20 47 20q19 0 35 -12.5t16 -34.5q0 -28 -29 -57q-77 -86 -180 -86q-62 0 -133 41t-115 41q-40 0 -76 -31q-35 -26 -64.5 -17t-29.5 46z" />
<glyph unicode="&#x2000;" horiz-adv-x="817" />
<glyph unicode="&#x2001;" horiz-adv-x="1634" />
<glyph unicode="&#x2002;" horiz-adv-x="817" />
<glyph unicode="&#x2003;" horiz-adv-x="1634" />
<glyph unicode="&#x2004;" horiz-adv-x="544" />
<glyph unicode="&#x2005;" horiz-adv-x="408" />
<glyph unicode="&#x2006;" horiz-adv-x="272" />
<glyph unicode="&#x2007;" horiz-adv-x="272" />
<glyph unicode="&#x2008;" horiz-adv-x="204" />
<glyph unicode="&#x2009;" horiz-adv-x="326" />
<glyph unicode="&#x200a;" horiz-adv-x="90" />
<glyph unicode="&#x2010;" d="M160 541q0 32 24 51.5t62 19.5h577q41 0 64.5 -19t23.5 -52q0 -76 -88 -76h-577q-86 0 -86 76z" />
<glyph unicode="&#x2011;" d="M160 541q0 32 24 51.5t62 19.5h577q41 0 64.5 -19t23.5 -52q0 -76 -88 -76h-577q-86 0 -86 76z" />
<glyph unicode="&#x2012;" d="M160 541q0 32 24 51.5t62 19.5h577q41 0 64.5 -19t23.5 -52q0 -76 -88 -76h-577q-86 0 -86 76z" />
<glyph unicode="&#x2013;" horiz-adv-x="1484" d="M160 541q0 32 24 51.5t62 19.5h999q86 0 86 -71q0 -76 -86 -76h-999q-86 0 -86 76z" />
<glyph unicode="&#x2014;" horiz-adv-x="1789" d="M160 541q0 32 24 51.5t62 19.5h1304q86 0 86 -71q0 -76 -86 -76h-1304q-86 0 -86 76z" />
<glyph unicode="&#x2018;" horiz-adv-x="581" d="M141 1139q0 81 47.5 151.5t120.5 116.5q22 14 43 14q20 0 33.5 -12.5t13.5 -32.5q0 -23 -28 -45q-102 -76 -99 -170q23 23 54 23q50 0 76 -30t26 -81q0 -54 -36.5 -88.5t-92.5 -34.5q-72 0 -115 53.5t-43 135.5z" />
<glyph unicode="&#x2019;" horiz-adv-x="581" d="M154 1309q0 54 36.5 89.5t92.5 35.5q72 0 115.5 -54t43.5 -135t-48 -151t-122 -117q-22 -16 -41 -16q-20 0 -34.5 13t-14.5 32q0 22 29 45q101 79 98 170q-23 -23 -53 -23q-49 0 -75.5 30t-26.5 81z" />
<glyph unicode="&#x201a;" horiz-adv-x="577" d="M145 106q0 54 36.5 89.5t92.5 35.5q72 0 116 -53.5t44 -134.5t-48 -151t-122 -117q-24 -17 -41 -17q-20 0 -34.5 13t-14.5 32q0 22 29 45q101 79 98 170q-22 -22 -53 -22q-49 0 -76 30t-27 80z" />
<glyph unicode="&#x201c;" horiz-adv-x="987" d="M143 1139q0 81 48 151t122 117q22 16 41 16q20 0 33.5 -13t13.5 -32q0 -25 -26 -45q-102 -80 -99 -170q23 23 54 23q48 0 74 -30t26 -81q0 -54 -36.5 -89.5t-90.5 -35.5q-72 0 -116 54t-44 135zM547 1139q0 81 48 151t122 117q22 16 41 16q20 0 33.5 -13t13.5 -32 q0 -24 -27 -45q-101 -79 -98 -170q23 23 53 23q49 0 76 -30.5t27 -80.5q0 -54 -36.5 -89.5t-92.5 -35.5q-72 0 -116 54t-44 135z" />
<glyph unicode="&#x201d;" horiz-adv-x="980" d="M152 1309q0 54 36.5 89.5t90.5 35.5q72 0 115.5 -54t43.5 -135t-48 -151t-122 -117q-22 -16 -41 -16q-20 0 -33.5 13t-13.5 32q0 24 27 45q101 76 98 170q-23 -23 -53 -23q-48 0 -74 30t-26 81zM555 1309q0 54 36.5 89.5t90.5 35.5q72 0 116 -54t44 -135t-47.5 -151.5 t-120.5 -116.5q-29 -16 -43 -16q-20 0 -33.5 13t-13.5 32q0 25 26 45q105 77 99 170q-23 -23 -52 -23q-50 0 -76 30t-26 81z" />
<glyph unicode="&#x201e;" horiz-adv-x="983" d="M145 106q0 54 36.5 89.5t92.5 35.5q72 0 116 -53.5t44 -134.5t-48 -151t-122 -117q-24 -17 -41 -17q-20 0 -34.5 13t-14.5 32q0 22 29 45q101 79 98 170q-22 -22 -53 -22q-49 0 -76 30t-27 80zM549 106q0 54 36.5 89.5t92.5 35.5q72 0 116 -53.5t44 -134.5t-48 -151 t-122 -117q-24 -17 -41 -17q-20 0 -33.5 13t-13.5 32q0 25 26 45q102 80 99 170q-22 -22 -54 -22q-49 0 -75.5 30t-26.5 80z" />
<glyph unicode="&#x2022;" horiz-adv-x="827" d="M193 528q0 87 62 146t153 59t153 -59.5t62 -149.5q0 -88 -62.5 -149.5t-152.5 -61.5q-91 0 -153 61.5t-62 153.5z" />
<glyph unicode="&#x2026;" horiz-adv-x="1441" d="M152 104q0 52 35.5 87.5t88.5 35.5q54 0 89.5 -35.5t35.5 -87.5q0 -55 -35 -88.5t-90 -33.5t-89.5 33.5t-34.5 88.5zM592 104q0 52 36 87.5t89 35.5t89 -35.5t36 -87.5q0 -55 -35 -88.5t-90 -33.5t-90 33.5t-35 88.5zM1040 104q0 51 36 87t87 36q53 0 89 -35.5t36 -87.5 q0 -55 -35 -88.5t-90 -33.5q-52 0 -87.5 34.5t-35.5 87.5z" />
<glyph unicode="&#x202f;" horiz-adv-x="326" />
<glyph unicode="&#x2039;" horiz-adv-x="774" d="M106 530q0 26 19 45l342 379q37 43 76 43q27 0 53 -20q58 -52 6 -121l-254 -324l252 -325q55 -75 -6 -121q-26 -20 -53 -20q-39 0 -76 40l-340 379q-19 22 -19 45z" />
<glyph unicode="&#x203a;" horiz-adv-x="774" d="M215 856q-52 69 6 121q26 20 53 20q39 0 76 -43l342 -379q19 -19 19 -45q0 -23 -19 -45l-340 -379q-37 -40 -76 -40q-27 0 -53 20q-61 46 -6 121l252 325z" />
<glyph unicode="&#x205f;" horiz-adv-x="408" />
<glyph unicode="&#x20ac;" horiz-adv-x="1599" d="M127 848q0 51 61 51h127q52 254 246 404q195 151 469 151q80 0 184 -22q91 -19 152 -50q68 -35 68 -84q0 -36 -21.5 -63t-60.5 -27q-15 0 -62 13q-146 49 -252 49q-181 0 -305.5 -99.5t-169.5 -271.5h570q63 0 63 -51q0 -53 -63 -53h-592q-4 -70 -4 -78t4 -86h495 q64 0 64 -51q0 -24 -17.5 -39t-46.5 -15h-471q45 -168 169.5 -265t305.5 -97q123 0 226 35q38 12 61 12q37 0 59.5 -25t22.5 -59q0 -58 -70 -92q-125 -55 -305 -55q-272 0 -467 145q-191 145 -250 401h-110q-62 0 -62 54q0 51 62 51h96q-4 36 -4 86q0 60 2 78h-113 q-61 0 -61 53z" />
<glyph unicode="&#x2122;" horiz-adv-x="1642" d="M152 1372q0 62 71 62h428q72 0 72 -62q0 -63 -72 -63h-149v-457q0 -30 -20.5 -47.5t-45 -17.5t-45 17.5t-20.5 47.5v457h-148q-71 0 -71 63zM819 848v520q0 68 78 68q54 0 76 -54l172 -354l174 356q24 52 76 52q75 0 75 -68v-520q0 -27 -17 -44.5t-46 -17.5 q-27 0 -45.5 17t-18.5 45l7 344l-140 -270q-22 -48 -65 -48q-44 0 -66 48l-137 270l6 -344q3 -38 -31 -53.5t-68 0.5t-30 53z" />
<glyph unicode="&#x25fc;" horiz-adv-x="1075" d="M0 0v1075h1075v-1075h-1075z" />
</font>
</defs>
</svg>
