<?xml version="1.0" standalone="no"?>
<!DOCTYPE svg PUBLIC "-//W3C//DTD SVG 1.1//EN" "http://www.w3.org/Graphics/SVG/1.1/DTD/svg11.dtd" >
<svg xmlns="http://www.w3.org/2000/svg">
<metadata></metadata>
<defs>
<font id="centrale_sans_roundedbold" horiz-adv-x="1058" >
<font-face units-per-em="2048" ascent="1655" descent="-393" />
<missing-glyph horiz-adv-x="530" />
<glyph horiz-adv-x="0" />
<glyph horiz-adv-x="682" />
<glyph horiz-adv-x="20" />
<glyph horiz-adv-x="20" />
<glyph unicode="&#xd;" horiz-adv-x="636" />
<glyph unicode=" "  horiz-adv-x="530" />
<glyph unicode="&#x09;" horiz-adv-x="530" />
<glyph unicode="&#xa0;" horiz-adv-x="530" />
<glyph unicode="!" horiz-adv-x="645" d="M166 121q0 63 45 106t111 43q63 0 106 -43t43 -106q0 -64 -42 -106t-107 -42q-66 0 -111 42.5t-45 105.5zM170 1274q-6 77 33.5 119.5t113.5 42.5t114.5 -42.5t39.5 -119.5l-31 -709q-9 -125 -118 -125q-110 0 -119 125z" />
<glyph unicode="&#x22;" horiz-adv-x="1114" d="M217 930l2 362q-3 146 135 146q65 0 100 -42t23 -118l-74 -360q-18 -82 -96 -82q-39 0 -64.5 25.5t-25.5 68.5zM651 930l2 362q-3 146 135 146q65 0 100 -42t23 -118l-73 -360q-18 -82 -97 -82q-42 0 -66 25t-24 69z" />
<glyph unicode="#" horiz-adv-x="1640" d="M98 426q0 49 35 81t94 32h144l61 340h-104q-61 0 -95 31t-34 83q0 49 34.5 80t94.5 31h141l45 225q21 111 119 111q56 0 86 -39t18 -103l-35 -194h347l41 225q21 111 118 111q56 0 86.5 -39t18.5 -103l-35 -194h104q59 0 93 -31t34 -80q0 -51 -34 -82.5t-93 -31.5h-139 l-61 -340h100q60 0 94.5 -31t34.5 -80q0 -51 -36 -83t-93 -32h-141l-35 -207q-21 -112 -121 -112q-53 0 -83.5 38.5t-18.5 102.5l28 178h-348l-39 -207q-21 -112 -121 -112q-56 0 -86 38.5t-18 102.5l31 178h-103q-60 0 -94.5 31t-34.5 82zM604 539h348l62 340h-350z" />
<glyph unicode="$" horiz-adv-x="1226" d="M117 1049q0 181 108.5 286.5t306.5 124.5v101q0 86 89 86q39 0 62.5 -22.5t23.5 -63.5v-103q161 -9 274 -53q84 -35 84 -111q0 -50 -32 -84t-89 -34q-17 0 -59 10q-140 41 -258 41q-114 0 -171 -48t-57 -130q0 -63 58 -121q26 -23 71 -43l76 -33l94 -33q50 -18 121 -47 q53 -20 111 -57q67 -40 104 -80q39 -41 65.5 -107.5t26.5 -140.5q0 -176 -109 -280.5t-310 -129.5v-106q0 -41 -23.5 -63.5t-62.5 -22.5q-89 0 -89 86v104q-175 9 -290 56q-97 35 -97 116q0 50 30 82.5t79 32.5q28 0 84 -16q134 -41 262 -41q117 0 179.5 49t62.5 141 q0 41 -21.5 71.5t-62.5 59.5q-48 32 -125 54q-48 18 -76 26l-74 27q-86 32 -141 60t-109 73q-116 96 -116 283z" />
<glyph unicode="%" horiz-adv-x="1726" d="M92 1108q0 154 94 252t246 98q149 0 240 -98q94 -94 94 -248q0 -147 -96 -248q-94 -98 -246 -98q-147 0 -240 96q-92 95 -92 246zM305 1112q-4 -53 19.5 -93.5t57.5 -56t72 -8t62 40.5q35 47 35 117q0 72 -34.5 116t-88.5 44q-55 0 -89 -44t-34 -116zM403 94q0 36 21 70 l690 1198q44 78 107 78q45 0 76.5 -28t31.5 -71q0 -32 -20 -71l-688 -1198q-47 -78 -109 -78q-45 0 -77 28.5t-32 71.5zM963 317q0 154 94 252q95 99 246 99q147 0 239 -99q94 -94 94 -247q0 -147 -96 -248q-94 -99 -246 -99q-145 0 -239 97q-92 95 -92 245zM1176 322 q-4 -53 19 -93.5t57 -56t72 -8t62 40.5q35 47 35 117q0 71 -34.5 115t-88.5 44q-55 0 -88.5 -43.5t-33.5 -115.5z" />
<glyph unicode="&#x26;" horiz-adv-x="1419" d="M102 389q0 136 72 235t217 191l-72 90q-25 36 -47 97t-22 118q0 161 106 248q110 90 260 90t256 -86q107 -82 107 -231q0 -108 -62.5 -193.5t-193.5 -165.5l287 -331q63 69 129 182q52 82 133 55q52 -19 66 -62t-15 -110q-59 -124 -162 -227l94 -111q41 -47 41 -90 q0 -49 -33 -80t-83 -31q-59 0 -105 58l-86 104q-180 -162 -430 -162q-192 0 -323 107q-134 110 -134 305zM352 416q0 -100 64.5 -156.5t167.5 -56.5q144 0 260 104l-320 355q-90 -56 -131 -112.5t-41 -133.5zM483 1110q0 -84 111 -195q158 87 158 205q0 57 -37 94t-97 37 q-61 0 -98 -41.5t-37 -99.5z" />
<glyph unicode="'" horiz-adv-x="559" d="M158 930l2 362q-3 146 133 146q67 0 102 -43t23 -117l-74 -360q-15 -82 -94 -82q-41 0 -66 25t-26 69z" />
<glyph unicode="(" horiz-adv-x="786" d="M98 604q0 222 95 410.5t253 328.5q74 68 140 68q40 0 67 -25.5t27 -58.5q0 -45 -64 -121l-8 -10q-229 -241 -229 -594q-3 -379 248 -639q61 -76 61 -117q0 -34 -27.5 -60t-68.5 -26q-60 0 -139 70q-355 323 -355 774z" />
<glyph unicode=")" horiz-adv-x="788" d="M94 -154q0 40 62 117q250 259 247 639q0 353 -229 594q-61 73 -70 107q-2 8 -2 24q0 33 27.5 58.5t67.5 25.5q64 0 141 -68q157 -139 251.5 -328.5t94.5 -410.5q0 -452 -354 -774q-73 -70 -140 -70q-40 0 -68 26.5t-28 59.5z" />
<glyph unicode="*" horiz-adv-x="923" d="M157 1095.5q12 30.5 50 43.5l145 65l-145 62q-36 13 -48 45t7 61t52.5 32t64.5 -20l123 -92l-19 164q-15 84 68 84q38 0 57 -22.5t14 -61.5l-20 -164l127 94q31 23 64.5 20t52.5 -32q20 -31 8 -59.5t-49 -46.5l-148 -64l148 -65q37 -18 49 -47t-8 -60q-19 -29 -52.5 -32 t-64.5 22l-127 90l20 -160q5 -39 -14 -62.5t-55 -23.5q-38 0 -56 23.5t-12 62.5l17 160l-123 -90q-31 -25 -65 -22t-54 34q-19 31 -7 61.5z" />
<glyph unicode="+" horiz-adv-x="1048" d="M119 694q0 42 30 67t80 25h207v215q0 47 24.5 75t65.5 28q42 0 68.5 -29t26.5 -74v-215h206q51 0 82 -25t31 -67q0 -92 -113 -92h-206v-219q0 -44 -26 -72t-69 -28q-42 0 -66 26.5t-24 73.5v219h-207q-50 0 -80 25t-30 67z" />
<glyph unicode="," horiz-adv-x="593" d="M133 102q0 60 43.5 101t106.5 41q80 0 129 -58.5t49 -148.5q0 -171 -170 -285q-33 -20 -60 -20q-24 0 -39.5 14t-15.5 37q0 29 33 55q91 66 100 158q-23 -23 -55 -23q-57 0 -89 34.5t-32 94.5z" />
<glyph unicode="-" d="M147 539q0 42 29.5 66t77.5 24h551q106 0 106 -90q0 -93 -106 -93h-551q-49 0 -78 25t-29 68z" />
<glyph unicode="." horiz-adv-x="561" d="M137 115q0 60 41 100.5t101 40.5t101.5 -40.5t41.5 -100.5q0 -61 -40.5 -101.5t-102.5 -40.5q-61 0 -101.5 40t-40.5 102z" />
<glyph unicode="/" horiz-adv-x="956" d="M-6 -299q0 27 12 61l713 1653q35 90 108 90q42 0 70.5 -25t28.5 -65q0 -30 -13 -59l-712 -1655q-35 -90 -107 -90q-42 0 -70.5 24.5t-29.5 65.5z" />
<glyph unicode="0" horiz-adv-x="1482" d="M117 715q0 334 174 538q175 205 454 205q276 0 449 -203q174 -201 174 -534q0 -337 -174 -541q-175 -205 -453 -205q-276 0 -452 203q-172 202 -172 537zM406 717q0 -245 89 -377.5t250 -132.5q159 0 246.5 132t87.5 376q0 243 -89.5 377.5t-248.5 134.5 q-156 0 -245.5 -135t-89.5 -375z" />
<glyph unicode="1" horiz-adv-x="821" d="M92 1178q0 64 84 114l189 107q73 43 131 43q135 0 135 -137v-1166q0 -68 -36.5 -106.5t-98.5 -38.5t-98 38.5t-36 106.5v1004l-88 -51q-41 -23 -77 -23q-48 0 -76.5 32t-28.5 77z" />
<glyph unicode="2" horiz-adv-x="1214" d="M98 135q0 75 99 164l405 367q103 99 147 169.5t44 157.5q0 104 -70.5 171t-200.5 67q-57 0 -211 -49q-41 -13 -75 -13q-49 0 -77 32t-28 79q0 79 98 113q168 65 344 65q225 0 365 -125q141 -126 141 -323q0 -174 -102 -301q-58 -74 -94 -107q-63 -58 -119 -108l-293 -269 h514q59 0 93 -30t34 -80q0 -48 -35.5 -81.5t-91.5 -33.5h-743q-69 0 -106.5 38t-37.5 97z" />
<glyph unicode="3" horiz-adv-x="1232" d="M100 162q0 42 27.5 71t69.5 29q13 0 75 -16q104 -39 246 -39q128 0 206.5 59.5t78.5 171.5q0 115 -87.5 170.5t-232.5 55.5h-30q-117 0 -117 98q0 96 119 96h37q270 0 270 178q0 90 -71 140.5t-179 50.5q-70 0 -178 -27q-58 -12 -74 -12q-44 0 -72 29.5t-28 76.5 q0 82 102 119q128 45 291 45q219 0 350 -98q133 -100 133 -275q0 -112 -65 -201t-185 -126q138 -30 219.5 -123t81.5 -238q0 -201 -157 -313q-157 -109 -402 -109q-181 0 -329 60q-99 44 -99 127z" />
<glyph unicode="4" horiz-adv-x="1302" d="M72 444q1 26 17 59t32.5 56t48.5 64l541 690q40 54 55 69q58 58 141 58q68 0 109 -39.5t41 -112.5v-774h57q109 0 109 -96q0 -98 -109 -101h-57v-178q0 -68 -36.5 -106.5t-98.5 -38.5t-98 38.5t-36 106.5v178h-575q-64 0 -102.5 34t-38.5 93zM346 514h442v563z" />
<glyph unicode="5" horiz-adv-x="1204" d="M98 154q0 50 28.5 82t72.5 32q33 0 71 -14q122 -51 242 -51q137 0 224 74.5t87 197.5q0 116 -72.5 189t-185.5 73q-65 0 -155 -35q-108 -44 -187 -2q-79 40 -61 168l57 439q15 127 146 127h581q79 6 112 -53.5t0 -119t-112 -53.5h-526l-45 -338q107 66 258 66 q222 0 348 -129q127 -130 127 -324q0 -225 -150 -366q-148 -142 -407 -142q-179 0 -352 66q-101 34 -101 113z" />
<glyph unicode="6" horiz-adv-x="1347" d="M117 674q0 225 73 411q32 81 78 145.5t111 117t155 81.5t199 29q186 0 332 -51q98 -34 98 -113q0 -45 -28 -77.5t-74 -32.5q-27 0 -92 18q-89 29 -215 29q-185 0 -284.5 -125.5t-100.5 -362.5q54 94 154.5 145.5t228.5 51.5q214 0 352 -123q141 -120 141 -344 q0 -223 -149 -360q-147 -138 -381 -138q-125 0 -227 38t-170 103.5t-114 155.5t-66.5 190t-20.5 212zM412 463q0 -118 77 -196.5t203 -78.5q123 0 201 78.5t78 196.5q0 119 -75.5 195.5t-203.5 76.5t-204 -77t-76 -195z" />
<glyph unicode="7" horiz-adv-x="1173" d="M99 1261.5q-32 59.5 0 119t108 53.5h721q124 -8 157 -83.5t-41 -222.5l-485 -1038q-47 -96 -123 -96q-56 0 -93.5 31t-37.5 81q0 36 21 76l479 1026h-598q-76 -6 -108 53.5z" />
<glyph unicode="8" horiz-adv-x="1331" d="M109 403q0 128 80 222.5t212 132.5q-103 32 -166 111.5t-63 193.5q0 185 139 291q137 104 355 104q217 0 354 -104q139 -106 139 -291q0 -114 -63 -193.5t-166 -111.5q132 -38 212.5 -132.5t80.5 -222.5q0 -212 -158 -321q-155 -107 -399 -107q-245 0 -400 107 q-157 109 -157 321zM387 414q-4 -88 53.5 -149t141 -75t167.5 0t141.5 75t53.5 149q0 107 -76.5 168t-201.5 61t-202 -61t-77 -168zM432 1047q0 -88 63.5 -142.5t170.5 -54.5t170 54.5t63 142.5q0 90 -64.5 143t-168.5 53t-169 -53t-65 -143z" />
<glyph unicode="9" horiz-adv-x="1316" d="M92 961q0 220 146 360q146 137 391 137q122 0 221.5 -38t166 -102.5t111 -154.5t64.5 -191t20 -214q0 -222 -73 -408q-63 -169 -200 -270.5t-351 -104.5q-184 0 -332 54q-96 35 -96 114q0 46 29 75.5t79 29.5q12 0 38 -5.5t56.5 -13.5t32.5 -8q88 -18 166 -18 q196 0 298 126t104 361q-54 -94 -153 -145t-226 -51q-215 0 -353 120q-139 124 -139 347zM367 971q0 -120 75 -196.5t203 -76.5q125 0 200 77.5t75 195.5t-75 196t-200 78t-201.5 -77.5t-76.5 -196.5z" />
<glyph unicode=":" horiz-adv-x="579" d="M147 174q0 60 40 100.5t100 40.5t101.5 -40.5t41.5 -100.5q0 -62 -40.5 -101.5t-102.5 -39.5q-61 0 -100.5 39.5t-39.5 101.5zM147 879q0 60 40 100.5t100 40.5t101.5 -40.5t41.5 -100.5q0 -61 -40.5 -100.5t-102.5 -39.5q-60 0 -100 39.5t-40 100.5z" />
<glyph unicode=";" horiz-adv-x="641" d="M162 109q0 60 41 100.5t104 40.5q80 0 129 -58.5t49 -146.5q0 -87 -48.5 -161.5t-125.5 -125.5q-29 -20 -53 -20q-25 0 -41 14.5t-16 38.5q0 30 32 55q92 71 101 158q-20 -20 -55 -20q-56 0 -86.5 32.5t-30.5 92.5zM174 821q0 60 40.5 101t100.5 41t103 -41t43 -101 q0 -62 -42 -101.5t-104 -39.5q-61 0 -101 39.5t-40 101.5z" />
<glyph unicode="&#x3c;" horiz-adv-x="894" d="M109 694q0 75 75 109l414 207q24 12 47 12q36 0 61.5 -24t30.5 -60q3 -61 -61 -88l-342 -156l344 -153q62 -27 59 -92q-5 -36 -29.5 -60t-60.5 -24q-23 0 -47 12l-416 211q-75 40 -75 106z" />
<glyph unicode="=" horiz-adv-x="1036" d="M156 524q0 90 108 90h518q107 0 107 -90q0 -94 -107 -94h-518q-50 0 -79 25t-29 69zM156 858q0 90 108 90h518q107 0 107 -90q0 -94 -107 -94h-518q-50 0 -79 25t-29 69z" />
<glyph unicode="&#x3e;" horiz-adv-x="894" d="M172 449q-6 63 59 90l344 155l-342 154q-67 30 -61 90q2 33 27.5 58t60.5 26q24 0 51 -12l414 -209q76 -30 76 -107q0 -66 -76 -106l-416 -213q-26 -13 -47 -13q-36 0 -60.5 24.5t-29.5 62.5z" />
<glyph unicode="?" horiz-adv-x="1048" d="M92 1280q0 75 76 109q132 69 293 69q189 0 323 -96t134 -279q0 -63 -20.5 -116t-53.5 -90t-73 -69t-79.5 -59t-72.5 -53t-53.5 -58.5t-20.5 -68.5v-47q-1 -49 -33 -78.5t-78 -29.5q-52 0 -82 30t-30 88v48q1 73 35.5 131.5t82.5 96.5t96 73.5t81.5 81t33.5 100.5 q0 78 -56 123t-144 45q-71 0 -144 -27q-63 -24 -98 -28q-54 -6 -85.5 26t-31.5 78zM285 121q0 63 45.5 106t111.5 43q63 0 106.5 -43t43.5 -106t-42 -105.5t-108 -42.5q-67 0 -112 42.5t-45 105.5z" />
<glyph unicode="@" horiz-adv-x="1890" d="M109 592q0 396 227 620q230 224 620 224q245 0 428 -88q191 -89 302.5 -284.5t111.5 -469.5q0 -220 -93.5 -335.5t-270.5 -115.5q-213 0 -254 170q-21 -58 -101 -114t-196 -56q-131 0 -214 73.5t-83 201.5q0 136 96 204t264 68q39 0 176 -10v57q1 82 -46.5 119t-141.5 37 q-57 0 -182 -25q-90 -15 -105 50q-15 71 72 92q133 34 262 34q161 0 250.5 -73t89.5 -221v-338q0 -119 119 -119q91 0 129.5 69.5t38.5 215.5q0 191 -52 328.5t-149 211.5q-175 137 -444 137q-322 0 -493 -171t-171 -494q0 -320 168.5 -491t468.5 -171q136 0 264 41 q43 14 79 -1t46 -52q12 -40 -10 -72t-62 -45q-149 -51 -333 -51q-357 0 -586 221q-225 220 -225 623zM774 426q0 -66 42 -99.5t112 -33.5q86 0 140.5 50.5t53.5 135.5v80q-57 8 -143 8q-205 0 -205 -141z" />
<glyph unicode="A" horiz-adv-x="1402" d="M106 186l394 1094q59 164 235 164q175 0 234 -164l395 -1094q13 -37 13 -68q1 -40 -21 -70q-38 -54 -117 -54q-93 0 -133 123l-92 245h-559l-90 -247q-47 -121 -136 -121q-78 0 -116 54q-21 29 -21 68q0 32 14 70zM524 578h420l-207 610h-4z" />
<glyph unicode="B" horiz-adv-x="1452" d="M184 139v1155q0 66 37 103t103 37h528q210 0 324 -98t114 -281q0 -146 -69 -221q-72 -78 -150 -99q109 -21 191 -106q81 -81 81 -238q0 -186 -124 -289q-126 -102 -312 -102h-583q-66 0 -103 36t-37 103zM465 225l381 -2q86 0 141 55.5t55 143.5q0 85 -52 140.5 t-142 55.5l-383 3v-396zM465 836l350 -2q79 0 128.5 51t49.5 131q0 84 -52.5 137t-131.5 53l-344 2v-372z" />
<glyph unicode="C" horiz-adv-x="1402" d="M98 719q0 345 219 543q220 196 574 196q174 -3 305 -55q95 -38 92 -115q-4 -48 -32 -78q-27 -29 -77 -28h-3q-35 3 -127 24q-95 21 -166 21q-221 0 -353 -144q-131 -143 -131 -366q0 -224 133 -369q132 -141 355 -141q80 0 170 20q110 23 125 25h4q47 0 75 -26 q31 -28 31 -75q0 -85 -108 -126q-136 -50 -297 -50q-354 0 -572 197q-217 199 -217 547z" />
<glyph unicode="D" horiz-adv-x="1472" d="M184 139v1155q0 66 37 103t103 37h385q185 0 356 -91q323 -188 326 -626q0 -207 -83 -372t-243 -255q-162 -90 -356 -90h-385q-66 0 -103 36t-37 103zM465 229h176q178 0 297 93q152 122 152 397q0 297 -181 411q-115 74 -268 74h-176v-975z" />
<glyph unicode="E" horiz-adv-x="1333" d="M184 139v1155q0 66 37 103t103 37h766q7 1 14 1q65 -1 94 -55q16 -30 16 -60q0 -28 -16 -58q-29 -54 -94 -55q-7 0 -14 1h-625v-395h520q56 0 90.5 -32.5t34.5 -80.5q0 -50 -34.5 -82t-90.5 -32h-520v-361h643q7 1 14 1q65 0 94 -54q16 -30 16 -60q0 -28 -16 -58 q-29 -54 -94 -55q-7 0 -14 1h-784q-140 0 -140 139z" />
<glyph unicode="F" horiz-adv-x="1277" d="M184 137v1157q0 66 37 103t103 37h768q5 0 9 1q67 1 96 -55q16 -29 15.5 -58.5t-15.5 -59.5q-29 -55 -96 -54h-9h-627v-417h524q7 1 13 1q66 0 94 -54q16 -30 16 -60t-16 -59q-28 -53 -92 -53q-7 0 -15 1h-524v-430q0 -67 -37.5 -105t-103.5 -38q-64 0 -102 38t-38 105z " />
<glyph unicode="G" horiz-adv-x="1544" d="M98 717q0 335 221 538q226 203 578 203q182 0 344 -67q86 -38 86 -119q0 -46 -33 -78q-29 -29 -78 -29h-12q-19 2 -125 31q-102 31 -198 31q-218 0 -351 -148q-131 -143 -131 -364q0 -224 125 -367q126 -141 361 -141q176 0 307 96v268h-279q-53 0 -80.5 27.5t-27.5 75.5 q0 45 29 72.5t79 27.5h377q137 0 137 -139v-336q0 -105 -71 -158q-205 -166 -471 -166q-358 0 -574 201q-213 204 -213 541z" />
<glyph unicode="H" horiz-adv-x="1597" d="M184 137v1159q0 66 39 105t101 39q64 0 102.5 -38.5t38.5 -105.5v-473h668v473q0 68 37.5 106t101.5 38t102.5 -38.5t38.5 -105.5v-1159q0 -67 -38.5 -105t-102.5 -38t-101.5 37.5t-37.5 105.5v449h-668v-449q0 -67 -38.5 -105t-102.5 -38q-63 0 -101.5 38.5t-38.5 104.5 z" />
<glyph unicode="I" horiz-adv-x="651" d="M184 137v1159q0 68 38 106t102 38q66 0 103.5 -38.5t37.5 -105.5v-1159q0 -67 -37.5 -105t-103.5 -38q-64 0 -102 38t-38 105z" />
<glyph unicode="J" horiz-adv-x="1169" d="M88 231q0 43 29.5 74t75.5 31q59 0 98 -39q96 -90 194 -90q108 0 173 71.5t65 198.5v817q0 67 38.5 106.5t102.5 39.5q66 0 103 -38.5t37 -107.5v-768q0 -54 -11 -147q-26 -196 -153.5 -300t-337.5 -104q-227 0 -367 152q-47 47 -47 104z" />
<glyph unicode="K" horiz-adv-x="1404" d="M184 137v1157q0 68 37.5 107t104.5 39q66 0 102.5 -39.5t36.5 -106.5v-274l-6 -260l4 -2l565 606q27 31 43 43q37 33 94 33q73 0 101 -66q9 -20 9 -41q0 -48 -44 -100l-330 -356l389 -662q26 -41 26 -82q0 -32 -16 -65q-38 -74 -124 -74q-59 0 -91.5 24.5t-66.5 87.5 l-322 584l-231 -241v-312q0 -68 -37 -105.5t-104 -37.5t-103.5 38t-36.5 105z" />
<glyph unicode="L" horiz-adv-x="1193" d="M184 139v1157q0 68 38 106t102 38q66 0 103.5 -38.5t37.5 -105.5v-1071h543q60 0 94.5 -30t34.5 -78q0 -51 -34.5 -84t-94.5 -33h-684q-66 0 -103 36t-37 103z" />
<glyph unicode="M" horiz-adv-x="1953" d="M184 137v1123q0 87 51 133.5t123 46.5q83 0 129.5 -44t98.5 -159l387 -852h6l387 854q36 76 64 116.5t68 62.5t97 22q72 0 122 -45.5t50 -132.5v-1125q1 -67 -37 -105t-104 -38q-64 0 -101.5 38t-37.5 105v332l20 524h-4l-348 -768q-59 -127 -178 -127q-121 0 -180 127 l-346 770h-5l19 -526v-332q0 -67 -37.5 -105t-101.5 -38t-103 38t-39 105z" />
<glyph unicode="N" horiz-adv-x="1579" d="M184 137v1129q0 82 45 128t129 46q63 0 102.5 -27.5t78.5 -87.5l583 -891h4l-12 447v415q0 68 37.5 106t101.5 38t103 -38.5t39 -105.5v-1126q0 -82 -46 -129t-130 -47q-72 6 -111 34.5t-70 84.5l-579 901h-4l10 -449v-428q0 -67 -37.5 -105t-103.5 -38q-64 0 -102 37.5 t-38 105.5z" />
<glyph unicode="O" horiz-adv-x="1720" d="M98 717q0 329 211 534q213 207 551 207t551 -207q211 -205 211 -534q0 -332 -211 -537t-551 -205t-551 205t-211 537zM399 717q0 -230 129 -371q133 -139 332 -139q200 0 330 139q131 140 131 371q0 228 -131 368q-130 142 -330 142q-199 0 -332 -142 q-129 -141 -129 -368z" />
<glyph unicode="P" horiz-adv-x="1443" d="M184 137v1157q0 66 36 103t102 37h598q197 0 319 -134q121 -133 121 -323q0 -195 -119 -326q-116 -131 -313 -131h-463v-383q0 -67 -37.5 -105t-103.5 -38q-64 0 -102 38t-38 105zM465 745h373q100 0 160.5 63.5t60.5 166.5t-64 168t-166 65h-364v-463z" />
<glyph unicode="Q" horiz-adv-x="1720" d="M98 717q0 329 211 534q213 207 551 207t551 -207q211 -205 211 -534q0 -236 -113 -413t-311 -259q120 -58 256 -88q108 -25 108 -115q0 -7 -1 -14q-6 -61 -63 -90q-32 -16 -68 -16q-29 0 -60 10q-147 44 -293 125q-41 21 -76 43l-71 43l-58 34h-34q-332 6 -537 211 q-203 206 -203 529zM399 717q0 -230 129 -371q133 -139 332 -139q202 0 332 139q129 138 129 369q0 229 -129 370q-130 142 -332 142q-199 0 -332 -142q-129 -141 -129 -368z" />
<glyph unicode="R" horiz-adv-x="1439" d="M184 137v1157q0 66 36 103t102 37h575q200 0 324 -127q125 -125 125 -314q0 -143 -75 -250.5t-208 -154.5l211 -385q26 -45 26 -92q0 -57 -39 -88t-94 -31q-83 0 -133 92l-241 471h-328v-418q0 -67 -37.5 -105t-103.5 -38q-64 0 -102 38t-38 105zM465 782h377 q90 0 146 60t56 153t-58 153t-150 60h-371v-426z" />
<glyph unicode="S" horiz-adv-x="1247" d="M115 170q5 61 45 90q26 18 61 18q21 0 45 -6l62 -20l75 -25q96 -22 183 -22q270 0 270 178q0 91 -88 137q-66 37 -199 78l-135 43q-57 22 -119 55q-67 35 -106 78q-41 47 -67.5 116t-26.5 150q0 214 141 316q144 102 375 102q240 0 393 -69q80 -38 80 -107v-10 q-5 -64 -50 -94q-25 -17 -61 -17q-28 0 -61 10q-2 1 -9.5 3t-19 6t-24.5 8q-32 11 -68 20q-87 21 -158 21q-114 0 -173.5 -45t-59.5 -117q0 -94 88 -143q45 -25 80.5 -39t111.5 -39q93 -29 136 -45q47 -16 120 -58q76 -40 109 -79q42 -45 69 -114.5t27 -150.5 q0 -217 -155 -321q-154 -103 -400 -103q-250 0 -401 68q-90 41 -90 117v10z" />
<glyph unicode="T" horiz-adv-x="1339" d="M66 1262q-16 29 -16 58.5t16 59.5q30 55 98 55q5 0 10 -1h991q5 0 10 1q69 1 98 -55q16 -29 16 -58.5t-16 -59.5q-30 -55 -98 -54h-10h-356v-1071q0 -69 -37.5 -106t-103.5 -37q-64 0 -102 37.5t-38 105.5v1071h-354h-10q-68 -1 -98 54z" />
<glyph unicode="U" horiz-adv-x="1499" d="M170 496v800q0 68 37.5 106t101.5 38q66 0 104 -38.5t38 -105.5v-807q0 -129 83 -205.5t220 -76.5q134 0 214.5 76.5t80.5 205.5v807q0 68 37.5 106t101.5 38t102.5 -38.5t38.5 -105.5v-800q0 -231 -158 -377q-156 -144 -421 -144q-272 0 -426 148q-154 151 -154 373z " />
<glyph unicode="V" horiz-adv-x="1337" d="M59 1311q0 58 41.5 93.5t100.5 35.5q95 0 133 -109l192 -551l142 -458h4l143 456l189 553q38 109 133 109q59 0 100 -35.5t41 -93.5q0 -21 -12 -68l-385 -1087q-55 -162 -213 -162q-151 0 -209 162l-387 1087q-13 50 -13 68z" />
<glyph unicode="W" horiz-adv-x="2062" d="M76 1303q0 62 38.5 99.5t104.5 37.5q102 0 137 -115l144 -528q13 -45 65 -271q44 -192 45 -194h4l234 948q18 78 66.5 119t117.5 41q144 0 185 -158l235 -950h4q2 7 45 198q40 178 68 277l141 518q27 115 135 115q66 0 105 -37t39 -100q0 -34 -11 -76l-311 -1071 q-46 -162 -201 -162q-162 0 -202 162l-232 872l-233 -872q-40 -162 -201 -162q-157 0 -203 162l-309 1071q-10 52 -10 76z" />
<glyph unicode="X" horiz-adv-x="1390" d="M123 66q-14 28 -14 56q0 48 38 99l408 508l-401 481q-39 50 -39 98q0 31 16 60q41 74 123 74q65 0 113 -60l364 -452l365 450q50 62 118 62q83 0 121 -74q16 -29 16 -58q0 -47 -40 -98l-402 -485l408 -506q38 -51 38 -97q0 -30 -16 -58q-41 -72 -120 -72q-66 0 -113 59 l-379 469l-367 -467q-46 -61 -114 -61q-82 0 -123 72z" />
<glyph unicode="Y" horiz-adv-x="1292" d="M59 1323q0 50 41 85q39 32 87 32h6q67 0 116 -82l336 -551h4l332 551q49 82 119 82h6q51 0 88 -32q39 -34 39 -87q0 -36 -29 -86l-416 -657v-439q0 -145 -141 -145q-67 0 -104 38t-37 107v439l-418 657q-29 43 -29 88z" />
<glyph unicode="Z" horiz-adv-x="1308" d="M86 123q0 56 57 133l711 954l-2 4l-340 -6h-268h-10q-69 0 -99 54q-16 29 -16 58.5t16 59.5q30 55 99 55q5 0 10 -1h823q67 0 108.5 -31.5t41.5 -91.5q0 -61 -62 -144l-706 -946l2 -4l372 8h269q5 0 10 1q69 0 99 -55q16 -29 16 -58t-16 -59q-30 -55 -99 -54h-10h-859 q-147 0 -147 123z" />
<glyph unicode="[" horiz-adv-x="686" d="M174 -221v1540q0 66 35.5 102.5t101.5 36.5h158q119 0 119 -98q0 -46 -30.5 -73t-88.5 -27h-76v-1420h78q117 0 117 -98q0 -46 -30.5 -73t-88.5 -27h-156q-139 0 -139 137z" />
<glyph unicode="\" horiz-adv-x="956" d="M29 1415q1 41 29.5 65.5t70.5 24.5q68 0 109 -90l710 -1653q15 -30 15 -61q-1 -40 -30 -65t-71 -25q-67 0 -108 90l-713 1655q-12 34 -12 59z" />
<glyph unicode="]" horiz-adv-x="688" d="M102 -258q0 98 119 98h76v1420h-76q-58 0 -88.5 27t-30.5 73q0 98 119 98h158q66 0 101.5 -36.5t35.5 -102.5v-1540q0 -137 -137 -137h-158q-58 0 -88.5 27t-30.5 73z" />
<glyph unicode="^" horiz-adv-x="1007" d="M174 1221q0 34 27 61l196 213q36 39 107 39q67 0 106 -39l195 -213q26 -26 26 -61q0 -27 -18 -45.5t-47 -18.5q-45 0 -78 33l-184 182l-185 -182q-33 -33 -79 -33q-28 0 -47 19t-19 45z" />
<glyph unicode="_" horiz-adv-x="1239" d="M145 -203q0 92 111 92h737q109 0 109 -92q0 -96 -109 -96h-737q-52 0 -81.5 25t-29.5 71z" />
<glyph unicode="`" horiz-adv-x="718" d="M181.5 1463.5q2.5 38.5 33 65.5t72.5 27q66 0 100 -88l70 -170q19 -52 -1.5 -84t-64.5 -32q-38 0 -78 49l-100 151q-34 43 -31.5 81.5z" />
<glyph unicode="a" horiz-adv-x="1226" d="M78 311q0 174 129 261t356 87q48 0 223 -14v53q0 189 -237 189q-83 0 -244 -29q-20 -4 -38 -4q-37 0 -61 18q-36 26 -36 74q-3 77 92 98q142 39 340 39q440 0 440 -372v-437q0 -34 14.5 -46.5t53.5 -18.5q76 -9 76 -90q0 -60 -41 -90q-46 -37 -158 -37q-77 0 -125.5 36.5 t-54.5 104.5l-2 27q-91 -178 -350 -178q-173 0 -275 87.5t-102 241.5zM350 332q0 -76 49 -118t125 -42q111 0 186.5 65t75.5 166v78q-112 17 -196 17q-240 0 -240 -166z" />
<glyph unicode="b" horiz-adv-x="1351" d="M152 125v1231q0 149 133 149q135 0 135 -149v-447q113 174 350 174q231 0 360 -159q130 -160 130 -396q0 -232 -130 -389t-372 -157q-247 0 -355 188l-6 -61q-5 -51 -37.5 -83t-83.5 -32q-124 0 -124 131zM424 528q0 -142 78 -243q79 -97 200 -97q122 0 199.5 95.5 t77.5 244.5q0 152 -76 250q-76 99 -201 99q-126 0 -202 -99q-76 -98 -76 -250z" />
<glyph unicode="c" horiz-adv-x="1073" d="M86 530q0 249 160 400q159 153 418 153q143 0 243 -41q70 -34 70 -96q-1 -43 -31 -71q-29 -27 -78 -27h-4l-71 14q-59 15 -101 15q-174 0 -250 -105q-75 -100 -75 -242q0 -139 75 -239q77 -103 250 -103q44 0 103 15q42 10 82 16q6 1 12 1q40 0 64 -24q28 -27 28 -73 q0 -66 -70 -96q-89 -45 -243 -45q-253 0 -418 151q-164 150 -164 397z" />
<glyph unicode="d" horiz-adv-x="1351" d="M92 528q0 237 129 396t361 159q237 0 350 -174v447q0 149 135 149q133 0 133 -149v-1231q0 -131 -125 -131q-51 0 -83.5 32t-37.5 83l-6 61q-108 -188 -354 -188q-243 0 -373 157q-129 156 -129 389zM373 528q0 -149 77 -244.5t199 -95.5t201 97q78 101 78 243 q0 149 -78 250q-76 99 -201 99q-123 0 -200 -99q-76 -98 -76 -250z" />
<glyph unicode="e" horiz-adv-x="1210" d="M86 528q0 247 150 400q149 155 401 155q117 0 207 -35t143.5 -89t87.5 -128t46 -143t12 -143q-3 -96 -109 -96h-657q1 -127 89 -196t238 -69q98 0 242 39q26 7 47 7q29 0 49 -13q36 -23 41 -74v-9q0 -58 -74 -93q-133 -59 -325 -59q-278 0 -433 144.5t-155 401.5z M367 618h518q0 110 -58 189q-59 80 -184 80q-111 0 -185 -70.5t-91 -198.5z" />
<glyph unicode="f" horiz-adv-x="804" d="M60 987q6 27 31 46.5t61 21.5l84 10v94q0 184 75.5 271.5t251.5 87.5q71 0 121 -13q96 -18 96 -102q0 -42 -26 -67t-68 -25q-4 0 -26 2t-29 2q-69 0 -98 -32.5t-29 -111.5v-106h131q50 0 80 -26t30 -68q0 -40 -31 -68.5t-79 -28.5h-131v-733q0 -71 -36 -109t-99 -38 t-98 37.5t-35 109.5v733h-82h-7q-33 0 -55 16q-25 17 -31 44q-3 13 -3 27q0 13 2 26z" />
<glyph unicode="g" horiz-adv-x="1167" d="M98 -78q0 134 144 199q-121 47 -121 174q0 53 31.5 100t83.5 72q-46 38 -76.5 105.5t-30.5 138.5q0 179 118 275.5t320 96.5q83 0 150 -18h282q52 0 83.5 -27.5t31.5 -74.5q0 -88 -90 -103l-63 -10q53 -59 53 -166q0 -150 -117 -244q-113 -94 -309 -94q-122 0 -195 37 q-43 -34 -43 -72q0 -57 69.5 -71.5t274.5 -14.5h15q199 0 280 -78q80 -77 80 -186q0 -77 -32.5 -139t-84.5 -96q-45 -34 -114 -52q-107 -32 -234 -32q-506 0 -506 280zM338 -45q0 -77 82 -100q75 -19 168 -19q239 0 239 115q0 92 -137 92q-242 0 -291 12q-61 -40 -61 -100z M387 711q0 -189 184 -189q183 0 183 189q0 88 -46.5 136t-132.5 48q-92 0 -140 -48t-48 -136z" />
<glyph unicode="h" horiz-adv-x="1255" d="M152 143v1213q0 72 36 110.5t99 38.5t99 -38.5t36 -110.5v-426q105 153 317 153q180 0 282.5 -113.5t102.5 -348.5v-478q0 -72 -36 -110.5t-99 -38.5t-99 38.5t-36 110.5v482q0 252 -201 252q-112 0 -171.5 -78.5t-59.5 -206.5v-449q0 -72 -36 -110.5t-99 -38.5t-99 38.5 t-36 110.5z" />
<glyph unicode="i" horiz-adv-x="626" d="M76 963q0 47 32 74.5t89 27.5h137q66 0 102.5 -36t36.5 -103v-793q0 -67 -35.5 -103t-99.5 -36q-62 0 -97.5 36t-35.5 103v694l-51 19q-78 28 -78 117zM182 1333v23q0 61 39 96t105 35q68 0 107.5 -35t39.5 -96v-23q0 -59 -40 -93t-107 -34t-105.5 33t-38.5 94z" />
<glyph unicode="j" horiz-adv-x="641" d="M-51 -231q0 50 27 78t71 28q4 0 26 -1t31 -1q111 0 111 131v823l-53 17q-78 24 -78 119q0 47 32 74.5t89 27.5h139q66 0 102.5 -36t36.5 -103v-920q0 -178 -90 -269t-258 -91q-89 0 -135 30q-51 34 -51 93zM193 1333v23q0 61 38.5 96t104.5 35q69 0 108 -35t39 -96v-23 q0 -60 -39.5 -93.5t-107.5 -33.5q-65 0 -104 33.5t-39 93.5z" />
<glyph unicode="k" horiz-adv-x="1120" d="M152 139v1223q0 67 36.5 105t98.5 38t97.5 -38t35.5 -105v-479l-10 -308l225 256l151 170q64 70 119 70q87 0 117 -74q12 -24 12 -48q0 -44 -39 -87l-245 -260l276 -407q27 -37 27 -76q0 -29 -15 -58q-30 -67 -104 -67q-50 0 -83.5 21.5t-66.5 72.5l-219 346l-143 -147 v-148q0 -67 -37.5 -106t-99.5 -39t-97.5 39t-35.5 106z" />
<glyph unicode="l" horiz-adv-x="688" d="M160 252v1114q0 67 35.5 103t97.5 36q64 0 99.5 -36t35.5 -103v-1085q0 -49 17.5 -67.5t62.5 -18.5q33 0 41 -2q65 -9 65 -89q0 -50 -49 -84q-52 -38 -155 -38q-250 0 -250 270z" />
<glyph unicode="m" horiz-adv-x="1853" d="M152 133v807q0 62 30.5 96.5t89.5 34.5q95 0 113 -106l12 -70q36 84 118.5 136t174.5 52q227 0 307 -194q45 89 132.5 141.5t207.5 52.5q184 0 284.5 -105t100.5 -321v-524q0 -67 -35.5 -103t-99.5 -36q-62 0 -97.5 36t-35.5 103v541q0 91 -46.5 145.5t-137.5 54.5 q-94 0 -147.5 -66.5t-53.5 -158.5v-516q0 -67 -36.5 -103t-98.5 -36q-63 0 -98 36t-35 103v545q0 89 -47.5 142.5t-137.5 53.5t-142 -62.5t-52 -154.5v-524q0 -65 -37 -102t-100 -37q-62 0 -97.5 36t-35.5 103z" />
<glyph unicode="n" horiz-adv-x="1257" d="M152 135v805q0 131 116 131q95 0 113 -110l12 -76q107 198 346 198q180 0 282.5 -113.5t102.5 -348.5v-486q0 -67 -36.5 -104t-98.5 -37q-63 0 -99 36.5t-36 104.5v490q0 252 -201 252q-112 0 -171.5 -78.5t-59.5 -206.5v-457q0 -68 -36 -104.5t-99 -36.5t-99 36.5 t-36 104.5z" />
<glyph unicode="o" horiz-adv-x="1335" d="M86 535q0 247 166 397q168 151 418 151q251 0 413 -149q166 -150 166 -399t-166 -402q-168 -151 -413 -151q-250 0 -418 151q-166 150 -166 402zM367 530q0 -153 84.5 -247.5t218.5 -94.5q131 0 215 94.5t84 247.5q0 157 -83.5 252t-215.5 95q-135 0 -219 -95t-84 -252z " />
<glyph unicode="p" horiz-adv-x="1351" d="M152 -215v1155q0 131 120 131q96 0 117 -100l14 -76q52 93 146 140.5t209 47.5q240 0 370 -157q132 -156 132 -391q0 -237 -132 -396q-130 -157 -358 -157q-117 0 -211 48t-139 128v-373q0 -65 -37 -102t-100 -37q-61 0 -96 36t-35 103zM424 535q0 -152 76 -250 q79 -97 202 -97q120 0 199 97q78 101 78 250q0 150 -77 246t-200 96q-126 0 -202 -99q-76 -94 -76 -243z" />
<glyph unicode="q" horiz-adv-x="1351" d="M92 535q0 235 129 391q133 157 373 157q115 0 208.5 -47t145.5 -141l15 76q21 100 116 100q121 0 121 -131v-1155q0 -67 -35 -103t-96 -36q-63 0 -100 37t-37 102v373q-45 -80 -139 -128t-211 -48q-228 0 -361 157q-129 159 -129 396zM373 535q0 -152 76 -250 q79 -97 200 -97q122 0 201 97q78 101 78 250q0 147 -78 243q-76 99 -201 99q-122 0 -199 -96t-77 -246z" />
<glyph unicode="r" horiz-adv-x="825" d="M152 133v817q0 57 31.5 89t88.5 32q96 0 111 -98l18 -123q94 225 246 225q65 0 99 -33.5t34 -91.5q0 -53 -33 -83.5t-106 -55.5q-219 -68 -219 -307v-371q0 -65 -37 -102t-100 -37q-61 0 -97 36.5t-36 102.5z" />
<glyph unicode="s" horiz-adv-x="1019" d="M98 770q1 154 116.5 233.5t307.5 79.5q159 0 295 -47q79 -32 79 -91q0 -6 -1 -13q-5 -40 -31 -64q-24 -23 -64 -22h-3q-20 0 -58 10q-96 35 -192 35q-89 0 -133.5 -30t-44.5 -77q0 -60 57 -88q4 -2 22.5 -11t36.5 -15l35 -13q8 -3 40 -12t40 -12q83 -26 132 -46.5 t102 -56.5q114 -74 114 -233q-3 -162 -127 -240q-117 -75 -299 -75h-14q-202 0 -336 61q-68 27 -68 98q0 38 25.5 64t63.5 26q14 0 69 -14q128 -43 221 -43q99 0 146 32t47 83q0 28 -16.5 52t-45.5 36l-65 26q-14 5 -37 11q-8 3 -42 12t-42 12q-76 24 -123.5 46t-99.5 57 q-107 76 -107 221v8z" />
<glyph unicode="t" horiz-adv-x="839" d="M43 965q0 73 82 88l78 12l22 192q18 121 129 121q54 0 85.5 -32t31.5 -89v-192h182q53 0 82 -26t29 -70q0 -42 -30.5 -68.5t-80.5 -26.5h-182v-540q0 -84 31.5 -120t95.5 -36q12 0 55 6q11 1 20 1q34 1 58 -15q31 -20 31 -68q0 -66 -72 -94q-68 -26 -162 -26 q-325 0 -325 348v544h-43q-117 0 -117 91z" />
<glyph unicode="u" horiz-adv-x="1236" d="M133 438v492q0 68 36 104.5t99 36.5q62 0 97.5 -36.5t35.5 -104.5v-490q0 -252 211 -252q100 0 161 74t61 197v471q0 68 36 104.5t99 36.5t99 -36.5t36 -104.5v-809q0 -62 -30 -94.5t-85 -32.5q-91 0 -112 102l-15 74q-56 -98 -134.5 -143t-201.5 -45 q-186 0 -289.5 111.5t-103.5 344.5z" />
<glyph unicode="v" horiz-adv-x="1132" d="M123 885q-13 36 -13 67q0 36 18 65q34 54 112 54q88 0 125 -108l231 -676h4l227 676q37 108 125 108q79 0 112 -55q17 -29 17 -63q0 -31 -14 -68l-270 -742q-55 -149 -203 -149q-149 0 -201 149z" />
<glyph unicode="w" horiz-adv-x="1767" d="M121 887q-11 35 -11 65q0 38 18 67q32 52 108 52q90 0 124 -110l197 -672h8l187 655q35 127 155 127q121 0 156 -127l188 -655h6l197 672q34 110 125 110q77 0 109 -52q18 -29 19 -68q0 -29 -11 -64l-236 -746q-46 -147 -192 -147q-150 0 -191 147l-168 572h-4l-166 -572 q-44 -147 -190 -147q-147 0 -193 147z" />
<glyph unicode="x" horiz-adv-x="1122" d="M109 63q-8 24 -8 46q0 45 34 84l285 346l-264 311q-40 44 -40 96q0 22 7 45q27 80 115 80q68 0 118 -59l230 -289l231 287q55 61 119 61q87 0 111 -76q9 -26 9 -49q0 -42 -30 -76l-276 -325l282 -340q38 -44 38 -91q0 -23 -9 -46q-24 -74 -111 -74q-72 0 -121 61 l-243 310l-246 -312q-46 -61 -119 -61q-85 0 -112 71z" />
<glyph unicode="y" horiz-adv-x="1163" d="M119 881q-15 36 -15 68q0 35 18 65q35 57 114 57q86 0 126 -113l121 -301q48 -128 131 -397h9q122 382 131 406l112 292q46 113 133 113q83 0 117 -57q17 -29 17 -64q0 -32 -15 -69l-346 -881q-76 -197 -162.5 -278.5t-224.5 -81.5q-79 0 -149 20q-93 29 -93 108 q0 45 28 70q27 23 67 23q14 0 49.5 -6.5t42.5 -6.5q97 0 135 154z" />
<glyph unicode="z" horiz-adv-x="1099" d="M92 129q0 71 64 141l540 596l-2 4l-309 -6h-147q-53 0 -85 28.5t-32 72.5q0 45 32 72.5t85 27.5h624q68 0 108 -34t40 -95q0 -71 -64 -141l-532 -594l2 -8l313 6h170q111 0 111 -99q0 -45 -29 -72.5t-82 -27.5h-661q-66 0 -106 34.5t-40 94.5z" />
<glyph unicode="{" horiz-adv-x="722" d="M84 551q0 52 39 72q2 1 11.5 6t12 6t10.5 6t10.5 7.5t9 7.5t8.5 9.5t6 11t5.5 13.5t3 16t1.5 19v410q0 141 51 223q62 100 246 100q65 0 99 -28t34 -76q0 -97 -117 -97q-94 0 -94 -122v-435q0 -128 -121 -149q121 -21 121 -150v-434q0 -123 94 -123q117 0 117 -96 q0 -48 -34 -76t-99 -28q-174 0 -236 86q-61 85 -61 235v412q-2 26 -6.5 42t-17.5 28t-20 16t-32 16q-41 18 -41 72z" />
<glyph unicode="|" horiz-adv-x="561" d="M172 -215v1714q0 57 29 88t80 31q50 0 79 -32t29 -87v-1714q0 -51 -29.5 -83t-78.5 -32q-51 0 -80 30.5t-29 84.5z" />
<glyph unicode="}" horiz-adv-x="722" d="M94 -252q0 96 117 96q94 0 94 123v434q0 129 121 150q-121 21 -121 149v435q0 122 -94 122q-117 0 -117 97q0 48 34 76t99 28q185 0 244 -100q53 -81 53 -223v-410q3 -26 8 -42t16.5 -27t21 -16.5t32.5 -16.5q39 -20 39 -72q0 -54 -41 -72q-25 -12 -32 -16t-20 -16 t-17.5 -28t-6.5 -42v-412q0 -150 -61 -235q-62 -86 -236 -86q-65 0 -99 28t-34 76z" />
<glyph unicode="&#xa2;" horiz-adv-x="1169" d="M92 692q0 225 131 371q134 150 355 176v109q0 75 75 75q74 0 74 -75v-105q128 -3 207 -39q70 -34 70 -96q0 -44 -30 -71.5t-83 -26.5l-74 14q-55 14 -108 14q-174 0 -250 -104q-76 -101 -76 -242q0 -138 76 -239q77 -103 250 -103q47 0 112 15q35 8 82 16q48 4 76.5 -23 t28.5 -73q0 -67 -70 -97q-73 -39 -211 -45v-92q0 -76 -74 -76q-75 0 -75 76v101q-214 30 -351 176q-135 147 -135 364z" />
<glyph unicode="&#xa3;" horiz-adv-x="1210" d="M102 115q0 18 17 69q1 5 11 19.5t13 17.5l37 41q64 73 64 148v200h-31q-41 0 -65.5 20.5t-24.5 53.5q0 35 24 54.5t66 19.5h31v237q0 199 121 332q119 131 342 131q143 0 262 -84q71 -53 71 -117q0 -45 -27 -74.5t-75 -29.5q-36 0 -70 21q-86 53 -147 53q-97 0 -148 -62 t-51 -168v-239h352q93 0 93 -72q0 -76 -93 -76h-352v-170q0 -157 -104 -215h547q64 0 100.5 -27.5t36.5 -80.5q0 -56 -35.5 -86.5t-101.5 -30.5h-719q-144 0 -144 115z" />
<glyph unicode="&#xa5;" horiz-adv-x="1265" d="M80 1323q0 50 38.5 84.5t90.5 34.5q72 0 119 -86l303 -559h4l305 559q47 86 119 86q52 0 90.5 -34.5t38.5 -84.5q0 -40 -29 -90l-385 -629v-82h170q74 0 74 -61q0 -30 -19.5 -47t-54.5 -17h-170v-86h170q74 0 74 -61q0 -64 -74 -64h-170v-80q0 -53 -39 -82.5t-102 -29.5 q-61 0 -99 29.5t-38 82.5v80h-170q-74 0 -74 64q0 61 74 61h168v86h-168q-35 0 -54.5 17t-19.5 47q0 61 74 61h168v82l-385 629q-29 50 -29 90z" />
<glyph unicode="&#xa8;" horiz-adv-x="1126" d="M197 1360q0 59 35 91t92 32q127 0 127 -123q0 -59 -34 -90t-95 -31q-57 0 -91 31t-34 90zM666 1360q0 58 34.5 90.5t90.5 32.5q129 0 129 -123q0 -59 -34 -90t-95 -31q-57 0 -91 31t-34 90z" />
<glyph unicode="&#xa9;" horiz-adv-x="1671" d="M113 719q0 301 213 508t514 207q302 0 512 -207q209 -206 209 -508q0 -304 -211 -512q-213 -207 -510 -207q-298 0 -514 207q-213 210 -213 512zM229 717q0 -254 179 -430q178 -172 432 -172q255 0 430 172q176 176 176 430q0 255 -176 428q-174 174 -430 174 q-252 0 -432 -174q-179 -176 -179 -428zM461 715q0 174 114 282q115 109 297 109q115 0 185 -43q47 -27 47 -74q0 -33 -19.5 -53.5t-54.5 -20.5q-12 0 -49 13q-41 20 -102 20q-88 2 -148.5 -46t-74 -118t0 -139.5t74 -117.5t148.5 -46q59 0 102 21q35 12 49 12 q35 0 54.5 -20.5t19.5 -53.5q0 -46 -47 -73q-70 -43 -185 -43q-185 0 -297 106q-114 108 -114 285z" />
<glyph unicode="&#xab;" horiz-adv-x="1345" d="M92 530q0 24 23 54l329 366q48 54 95 54q31 0 67 -25q78 -60 8 -154l-221 -295l219 -294q71 -95 -6 -154q-36 -25 -69 -25q-47 0 -95 54l-327 366q-23 23 -23 53zM655 530q0 24 23 54l328 366q48 54 94 54q33 0 69 -25q78 -62 7 -154l-220 -295l220 -294q70 -94 -9 -154 q-31 -25 -65 -25q-45 0 -96 54l-328 366q-23 23 -23 53z" />
<glyph unicode="&#xad;" d="M147 539q0 42 29.5 66t77.5 24h551q106 0 106 -90q0 -93 -106 -93h-551q-49 0 -78 25t-29 68z" />
<glyph unicode="&#xae;" horiz-adv-x="1214" d="M147 973q0 195 132 327q134 134 329 134q194 0 328 -134q133 -133 133 -327q0 -193 -133 -326t-328 -133q-196 0 -329 133q-132 132 -132 326zM246 973q0 -153 102 -258q103 -103 260 -103t260 103q105 102 105 258q0 155 -105 260q-101 104 -260 104t-260 -104 q-102 -105 -102 -260zM430 778v398q0 45 43 45h180q64 0 106 -41.5t42 -106.5q0 -107 -92 -137l73 -129q13 -23 13 -35q0 -18 -11.5 -29.5t-29.5 -11.5q-32 0 -47 31l-95 162h-90v-146q0 -47 -47 -47q-45 0 -45 47zM522 1008h129q27 0 44.5 18t17.5 47q0 33 -19.5 50.5 t-48.5 17.5h-123v-133z" />
<glyph unicode="&#xb4;" horiz-adv-x="716" d="M231 1212q-19 30 2 84l70 170q37 88 103 88q40 0 72 -26t32 -66q0 -38 -33 -80l-108 -151q-40 -49 -74 -49q-45 0 -64 30z" />
<glyph unicode="&#xb8;" horiz-adv-x="731" d="M188 -348q9 44 64 31q40 -7 67 -7q97 0 97 66q0 57 -82 57h-19q-37 0 -51.5 25t0.5 57l53 146h109l-47 -144q83 5 133.5 -31.5t50.5 -111.5q0 -164 -229 -164q-44 0 -94 12q-61 15 -52 64z" />
<glyph unicode="&#xbb;" horiz-adv-x="1343" d="M229 825q-71 95 7 154q31 25 65 25q50 0 98 -54l330 -366q21 -27 21 -54q0 -32 -21 -53l-328 -366q-51 -54 -98 -54q-34 0 -65 25q-78 62 -7 154l220 294zM793 236l219 294l-219 295q-71 92 6 154q31 25 65 25q51 0 99 -54l327 -366q23 -30 23 -54q0 -30 -23 -53 l-327 -366q-48 -54 -97 -54q-29 0 -65 25q-78 60 -8 154z" />
<glyph unicode="&#x2c6;" horiz-adv-x="1142" d="M212.5 1257q-18.5 38 20.5 78l164 152q41 41 106.5 41t106.5 -41l166 -152q27 -24 27 -55q0 -26 -18.5 -43.5t-47.5 -17.5q-37 0 -80 32l-153 115l-154 -113q-46 -34 -76 -34q-43 0 -61.5 38z" />
<glyph unicode="&#x2da;" horiz-adv-x="749" d="M182 1374q0 87 58 139q60 54 145 54t145 -54q58 -52 58 -139q0 -86 -58 -141q-59 -53 -145 -53t-145 53q-58 55 -58 141zM297 1372q0 -42 23 -68t65 -26q41 0 64.5 27t23.5 67q0 42 -23 68t-65 26t-65 -26t-23 -68z" />
<glyph unicode="&#x2dc;" horiz-adv-x="1034" d="M174 1278q0 33 35 74q82 88 188 88q56 0 129 -43q71 -39 116 -41.5t71 24.5q30 27 53 27t43 -16t20 -43q0 -34 -34 -74q-79 -88 -191 -88q-69 0 -137 41q-64 43 -109 43q-30 0 -69 -25q-39 -26 -56 -26q-25 0 -42 15.5t-17 43.5z" />
<glyph unicode="&#x2000;" horiz-adv-x="823" />
<glyph unicode="&#x2001;" horiz-adv-x="1647" />
<glyph unicode="&#x2002;" horiz-adv-x="823" />
<glyph unicode="&#x2003;" horiz-adv-x="1647" />
<glyph unicode="&#x2004;" horiz-adv-x="549" />
<glyph unicode="&#x2005;" horiz-adv-x="411" />
<glyph unicode="&#x2006;" horiz-adv-x="274" />
<glyph unicode="&#x2007;" horiz-adv-x="274" />
<glyph unicode="&#x2008;" horiz-adv-x="205" />
<glyph unicode="&#x2009;" horiz-adv-x="329" />
<glyph unicode="&#x200a;" horiz-adv-x="91" />
<glyph unicode="&#x2010;" d="M147 539q0 42 29.5 66t77.5 24h551q106 0 106 -90q0 -93 -106 -93h-551q-49 0 -78 25t-29 68z" />
<glyph unicode="&#x2011;" d="M147 539q0 42 29.5 66t77.5 24h551q106 0 106 -90q0 -93 -106 -93h-551q-49 0 -78 25t-29 68z" />
<glyph unicode="&#x2012;" d="M147 539q0 42 29.5 66t77.5 24h551q106 0 106 -90q0 -93 -106 -93h-551q-49 0 -78 25t-29 68z" />
<glyph unicode="&#x2013;" horiz-adv-x="1476" d="M147 539q0 42 29.5 66t77.5 24h977q106 0 106 -90q0 -93 -106 -93h-977q-49 0 -78 25t-29 68z" />
<glyph unicode="&#x2014;" horiz-adv-x="1875" d="M147 539q0 42 29.5 66t77.5 24h1378q107 0 107 -90q0 -93 -107 -93h-1378q-49 0 -78 25t-29 68z" />
<glyph unicode="&#x2018;" horiz-adv-x="583" d="M125 1108q0 174 174 287q41 27 76 15.5t35 -48.5q0 -28 -35 -55q-90 -75 -99 -158q22 22 56 22q55 0 86 -34.5t31 -94.5t-41.5 -100.5t-104.5 -40.5q-80 0 -129 58.5t-49 148.5z" />
<glyph unicode="&#x2019;" horiz-adv-x="583" d="M135 1290q0 60 41.5 101t104.5 41q80 0 129 -58.5t49 -148.5q0 -171 -174 -287q-29 -20 -54 -20t-41 15t-16 38q0 29 33 55q91 70 100 158q-21 -21 -55 -21q-117 0 -117 127z" />
<glyph unicode="&#x201a;" horiz-adv-x="587" d="M133 125q0 60 41.5 100.5t104.5 40.5q80 0 129 -58.5t49 -146.5q0 -87 -48 -161t-126 -125q-30 -21 -54 -21q-25 0 -41 15t-16 38q0 30 33 56q91 70 100 157q-16 -22 -57 -22q-55 0 -85 33.5t-30 93.5z" />
<glyph unicode="&#x201c;" horiz-adv-x="1021" d="M127 1108q0 176 174 289q27 18 53 18q25 0 41.5 -14t16.5 -37q0 -31 -35 -55q-89 -74 -98 -158q20 20 55 20q55 0 86 -33.5t31 -93.5t-42.5 -100.5t-105.5 -40.5q-80 0 -128 58.5t-48 146.5zM563 1108q0 173 174 289q41 27 76 15t35 -48q0 -29 -33 -55q-91 -70 -100 -158 q20 20 55 20q117 0 117 -127q0 -60 -41.5 -100.5t-104.5 -40.5q-80 0 -129 58.5t-49 146.5z" />
<glyph unicode="&#x201d;" horiz-adv-x="1013" d="M133 1290q0 60 41.5 101t104.5 41q80 0 129 -58.5t49 -148.5q0 -171 -174 -287q-29 -20 -54 -20t-41 15t-16 38q0 29 33 55q91 70 100 158q-21 -21 -55 -21q-117 0 -117 127zM569 1290q0 60 41.5 101t104.5 41q80 0 129 -58.5t49 -148.5q0 -174 -174 -287 q-41 -27 -76 -15.5t-35 48.5q0 31 35 55q89 74 98 158q-21 -21 -55 -21q-117 0 -117 127z" />
<glyph unicode="&#x201e;" horiz-adv-x="1024" d="M133 125q0 60 41.5 100.5t104.5 40.5q80 0 129 -58.5t49 -146.5q0 -87 -48 -161t-126 -125q-30 -21 -54 -21q-25 0 -41 15t-16 38q0 30 33 56q91 70 100 157q-16 -22 -57 -22q-55 0 -85 33.5t-30 93.5zM569 125q0 60 41.5 100.5t104.5 40.5q80 0 129 -58.5t49 -146.5 t-49 -163.5t-125 -122.5q-30 -21 -53 -21q-25 0 -41.5 15t-16.5 38q0 29 35 56q89 71 98 157q-16 -22 -55 -22q-55 0 -86 33.5t-31 93.5z" />
<glyph unicode="&#x2022;" horiz-adv-x="860" d="M174 526q0 102 72 168t174 66t174 -66t72 -168q0 -100 -72 -172q-70 -67 -174 -67t-174 67q-72 72 -72 172z" />
<glyph unicode="&#x2026;" horiz-adv-x="1513" d="M137 115q0 60 41 100.5t101 40.5t101.5 -40.5t41.5 -100.5q0 -61 -40.5 -101.5t-102.5 -40.5q-61 0 -101.5 40t-40.5 102zM612 115q0 60 41 100.5t101 40.5t101.5 -40.5t41.5 -100.5q0 -61 -40.5 -101.5t-102.5 -40.5q-61 0 -101.5 40t-40.5 102zM1092 115q0 59 41 100 t98 41q60 0 102.5 -40.5t42.5 -100.5q0 -61 -41.5 -101.5t-103.5 -40.5q-60 0 -99.5 39.5t-39.5 102.5z" />
<glyph unicode="&#x202f;" horiz-adv-x="329" />
<glyph unicode="&#x2039;" horiz-adv-x="784" d="M94 530q0 24 23 54l327 366q48 54 97 54q31 0 67 -25q78 -60 8 -154l-221 -295l219 -294q70 -94 -8 -154q-36 -25 -67 -25q-47 0 -95 54l-327 366q-23 23 -23 53z" />
<glyph unicode="&#x203a;" horiz-adv-x="784" d="M229 825q-71 95 7 154q36 25 67 25q48 0 96 -54l330 -366q21 -27 21 -54q0 -32 -21 -53l-328 -366q-48 -54 -100 -54q-27 0 -63 25q-78 62 -7 154l220 294z" />
<glyph unicode="&#x205f;" horiz-adv-x="411" />
<glyph unicode="&#x20ac;" horiz-adv-x="1603" d="M111 850q0 61 75 61h121q59 256 258 400q201 145 484 145q85 0 172 -20q87 -19 143 -43q90 -41 90 -109q0 -45 -27 -77.5t-75 -32.5q-31 0 -80 14q-127 39 -223 39q-158 0 -270.5 -84t-157.5 -232h522q48 5 68 -28.5t0 -67.5t-68 -31h-551q-6 -35 -6 -67q0 -39 6 -80h450 q76 0 76 -62q0 -29 -20.5 -47t-55.5 -18h-417q45 -141 156.5 -222t269.5 -81q99 0 190 24q65 15 80 15q48 0 74 -32.5t26 -78.5q0 -71 -88 -108q-121 -50 -282 -50q-280 0 -482 140q-199 141 -258 393h-104q-78 0 -78 65q0 62 78 62h84q-4 36 -4 80q0 53 2 67h-103 q-35 0 -55 18t-20 48z" />
<glyph unicode="&#x2122;" horiz-adv-x="1654" d="M141 1358q0 76 88 76h426q88 0 88 -76q0 -78 -88 -78h-133v-420q3 -49 -39.5 -69.5t-84.5 0t-38 69.5v420h-131q-88 0 -88 78zM817 856v500q0 82 90 82q65 0 92 -68l156 -344l156 346q28 66 90 66q92 0 92 -82v-500q0 -35 -21.5 -55.5t-56.5 -20.5q-33 0 -55.5 21 t-22.5 55l6 279l-108 -228q-23 -63 -80 -63q-61 0 -82 63l-108 228l6 -279q0 -47 -38.5 -66.5t-77 0t-38.5 66.5z" />
<glyph unicode="&#x25fc;" horiz-adv-x="1075" d="M0 0v1075h1075v-1075h-1075z" />
</font>
</defs>
</svg>
